<svg xmlns="http://www.w3.org/2000/svg" width="1408" height="592" viewBox="0 0 1408 592" font-family="Helvetica, Arial, sans-serif">
<title>interconnect: What is connected to what?</title>
<defs><marker id="arrow" viewBox="0 0 8 8" refX="7.5" refY="4" markerWidth="6" markerHeight="6" orient="auto-start-reverse"><path d="M0,0.8 L8,4 L0,7.2 Z" fill="#000000"/></marker></defs>
<line x1="28" y1="390" x2="1380" y2="390" stroke="#000000" stroke-width="0.6" stroke-dasharray="2 4"/>
<text x="28" y="383" font-size="9" fill="#000000">NOTHING IN THIS VIEW CONNECTS TO THESE</text>
<polyline points="760.0,134.0 910.0,134.0 910.0,190.0 928.0,190.0" fill="none" stroke="#000000" stroke-width="1" marker-start="url(#arrow)" marker-end="url(#arrow)"><title>electrical: NET-01b7014be933</title></polyline>
<polyline points="460.0,136.0 610.0,136.0 610.0,124.0 628.0,124.0" fill="none" stroke="#000000" stroke-width="1" marker-start="url(#arrow)" marker-end="url(#arrow)"><title>electrical: NET-a060544611fc</title></polyline>
<polyline points="1060.0,190.0 1210.0,190.0 1210.0,190.0 1228.0,190.0" fill="none" stroke="#000000" stroke-width="1" marker-start="url(#arrow)" marker-end="url(#arrow)"><title>electrical: NET-b3df9522a1aa</title></polyline>
<polyline points="160.0,190.0 603.0,190.0 603.0,228.0 628.0,228.0" fill="none" stroke="#000000" stroke-width="1" marker-start="url(#arrow)" marker-end="url(#arrow)"><title>electrical: NET-59321d691cbc</title></polyline>
<polyline points="460.0,312.0 596.0,312.0 596.0,252.0 628.0,252.0" fill="none" stroke="#000000" stroke-width="1" marker-start="url(#arrow)" marker-end="url(#arrow)"><title>electrical: NET-4411ae54eb05</title></polyline>
<polyline points="460.0,224.0 589.0,224.0 589.0,144.0 628.0,144.0" fill="none" stroke="#000000" stroke-width="1" marker-start="url(#arrow)" marker-end="url(#arrow)"><title>electrical: NET-76e0d034f372</title></polyline>
<polyline points="628.0,204.0 582.0,204.0 582.0,58.0 460.0,58.0" fill="none" stroke="#000000" stroke-width="1" marker-start="url(#arrow)" marker-end="url(#arrow)"><title>electrical: NET-2a8ba4ef04ef</title></polyline>
<polyline points="628.0,216.0 575.0,216.0 575.0,156.0 460.0,156.0" fill="none" stroke="#000000" stroke-width="1" marker-start="url(#arrow)" marker-end="url(#arrow)"><title>electrical: NET-4519b17f8f99</title></polyline>
<polyline points="628.0,264.0 568.0,264.0 568.0,332.0 460.0,332.0" fill="none" stroke="#000000" stroke-width="1" marker-start="url(#arrow)" marker-end="url(#arrow)"><title>electrical: NET-4d1ca10e619c</title></polyline>
<polyline points="628.0,240.0 561.0,240.0 561.0,244.0 460.0,244.0" fill="none" stroke="#000000" stroke-width="1" marker-start="url(#arrow)" marker-end="url(#arrow)"><title>electrical: NET-58788eea8844</title></polyline>
<g><rect x="328" y="28" width="132" height="60" fill="none" stroke="#000000" stroke-width="1.2" stroke-dasharray="5 3"/><text x="394" y="57.0" text-anchor="middle" font-size="12" font-weight="bold" fill="#000000">C_3</text><text x="394" y="70.0" text-anchor="middle" font-size="9" fill="#000000">(CAPACITOR)</text><title>CMP-049cfd8e6389, unknown: tolerance_pct, voltage_rating</title></g>
<g><rect x="628" y="104" width="132" height="60" fill="none" stroke="#000000" stroke-width="1.2" stroke-dasharray="5 3"/><text x="694" y="133.0" text-anchor="middle" font-size="12" font-weight="bold" fill="#000000">R_1</text><text x="694" y="146.0" text-anchor="middle" font-size="9" fill="#000000">(RESISTOR)</text><title>CMP-1116cb228fe1, unknown: power_rating, tolerance_pct</title></g>
<g><rect x="328" y="116" width="132" height="60" fill="none" stroke="#000000" stroke-width="1.2" stroke-dasharray="5 3"/><text x="394" y="145.0" text-anchor="middle" font-size="12" font-weight="bold" fill="#000000">R_2</text><text x="394" y="158.0" text-anchor="middle" font-size="9" fill="#000000">(RESISTOR)</text><title>CMP-37372974c055, unknown: power_rating, tolerance_pct</title></g>
<g><rect x="928" y="160" width="132" height="60" fill="none" stroke="#000000" stroke-width="1.2" stroke-dasharray="5 3"/><text x="994" y="189.0" text-anchor="middle" font-size="12" font-weight="bold" fill="#000000">R_3</text><text x="994" y="202.0" text-anchor="middle" font-size="9" fill="#000000">(RESISTOR)</text><title>CMP-4cd5e4d4b60d, unknown: power_rating, tolerance_pct</title></g>
<g><rect x="28" y="160" width="132" height="60" fill="none" stroke="#000000" stroke-width="1.2" stroke-dasharray="5 3"/><text x="94" y="189.0" text-anchor="middle" font-size="12" font-weight="bold" fill="#000000">C_2</text><text x="94" y="202.0" text-anchor="middle" font-size="9" fill="#000000">(CAPACITOR)</text><title>CMP-777fb775623d, unknown: tolerance_pct, voltage_rating</title></g>
<g><rect x="28" y="416" width="132" height="60" fill="none" stroke="#000000" stroke-width="1.2" stroke-dasharray="5 3"/><text x="94" y="445.0" text-anchor="middle" font-size="12" font-weight="bold" fill="#000000">R_LOAD</text><text x="94" y="458.0" text-anchor="middle" font-size="9" fill="#000000">(RESISTOR)</text><title>CMP-8cf6153ec1bd, unknown: power_rating, tolerance_pct</title></g>
<g><rect x="328" y="292" width="132" height="60" fill="none" stroke="#000000" stroke-width="1.2" stroke-dasharray="5 3"/><text x="394" y="321.0" text-anchor="middle" font-size="12" font-weight="bold" fill="#000000">R_0</text><text x="394" y="334.0" text-anchor="middle" font-size="9" fill="#000000">(RESISTOR)</text><title>CMP-9f649540f4bc, unknown: power_rating, tolerance_pct</title></g>
<g><rect x="328" y="204" width="132" height="60" fill="none" stroke="#000000" stroke-width="1.2" stroke-dasharray="5 3"/><text x="394" y="233.0" text-anchor="middle" font-size="12" font-weight="bold" fill="#000000">C_1</text><text x="394" y="246.0" text-anchor="middle" font-size="9" fill="#000000">(CAPACITOR)</text><title>CMP-d3b596962e6c, unknown: tolerance_pct, voltage_rating</title></g>
<g><rect x="1228" y="160" width="152" height="60" fill="none" stroke="#000000" stroke-width="1.2"/><text x="1304" y="189.0" text-anchor="middle" font-size="12" font-weight="bold" fill="#000000">R_4</text><text x="1304" y="202.0" text-anchor="middle" font-size="9" fill="#000000">(POTENTIOMETER)</text><title>CMP-e5d84f6363ba</title></g>
<g><rect x="628" y="192" width="132" height="84" fill="none" stroke="#000000" stroke-width="1.2"/><text x="694" y="233.0" text-anchor="middle" font-size="12" font-weight="bold" fill="#000000">AMP</text><text x="694" y="246.0" text-anchor="middle" font-size="9" fill="#000000">(OPAMP)</text><title>CMP-ed601b553153</title></g>
<text x="1065.0" y="187.5" text-anchor="start" font-size="8" fill="#000000">END_A</text>
<text x="165.0" y="187.5" text-anchor="start" font-size="8" fill="#000000">NON_INVERTING</text>
<text x="465.0" y="309.5" text-anchor="start" font-size="8" fill="#000000">OUTPUT</text>
<text x="623.0" y="201.5" text-anchor="end" font-size="8" fill="#000000">OUTPUT</text>
<text x="623.0" y="213.5" text-anchor="end" font-size="8" fill="#000000">NON_INVERTING</text>
<text x="623.0" y="261.5" text-anchor="end" font-size="8" fill="#000000">INVERTING</text>
<text x="623.0" y="237.5" text-anchor="end" font-size="8" fill="#000000">INVERTING</text>
<line x1="28" y1="504" x2="54" y2="504" stroke="#000000" stroke-width="1"/>
<text x="60" y="507.5" font-size="9.5" fill="#000000">ELECTRICAL</text>
<text x="28" y="534" font-size="9.5" fill="#000000">8 node(s) carry unknown parameters; a dashed border marks them</text>
<text x="704.0" y="564" text-anchor="middle" font-size="13" font-weight="bold" letter-spacing="0.08em" fill="#000000">INTERCONNECT</text>
<text x="704.0" y="580" text-anchor="middle" font-size="10" font-style="italic" fill="#000000">What is connected to what?</text>
</svg>
