<svg xmlns="http://www.w3.org/2000/svg" width="1428" height="556" viewBox="0 0 1428 556" font-family="Helvetica, Arial, sans-serif">
<title>interconnect: What is connected to what?</title>
<defs><marker id="arrow" viewBox="0 0 8 8" refX="7.5" refY="4" markerWidth="6" markerHeight="6" orient="auto-start-reverse"><path d="M0,0.8 L8,4 L0,7.2 Z" fill="#000000"/></marker></defs>
<polyline points="1080.0,234.0 1240.0,234.0 1240.0,260.0 1258.0,260.0" fill="none" stroke="#000000" stroke-width="1" marker-start="url(#arrow)" marker-end="url(#arrow)"><title>electrical: NET-5df90129db60</title></polyline>
<polyline points="780.0,146.0 798.0,146.0 798.0,102.0 1233.0,102.0 1233.0,236.0 1258.0,236.0" fill="none" stroke="#000000" stroke-width="1" marker-start="url(#arrow)" marker-end="url(#arrow)"><title>electrical: NET-c42280bad0a5</title></polyline>
<polyline points="780.0,322.0 805.0,322.0 805.0,278.0 1226.0,278.0 1226.0,284.0 1258.0,284.0" fill="none" stroke="#000000" stroke-width="1" marker-start="url(#arrow)" marker-end="url(#arrow)"><title>electrical: NET-2a8ba4ef04ef</title></polyline>
<polyline points="160.0,190.0 1219.0,190.0 1219.0,248.0 1258.0,248.0" fill="none" stroke="#000000" stroke-width="1" marker-start="url(#arrow)" marker-end="url(#arrow)"><title>electrical: NET-59321d691cbc</title></polyline>
<polyline points="160.0,278.0 310.0,278.0 310.0,234.0 328.0,234.0" fill="none" stroke="#000000" stroke-width="1" marker-start="url(#arrow)" marker-end="url(#arrow)"><title>electrical: NET-01b7014be933</title></polyline>
<polyline points="1080.0,322.0 1212.0,322.0 1212.0,296.0 1258.0,296.0" fill="none" stroke="#000000" stroke-width="1" marker-start="url(#arrow)" marker-end="url(#arrow)"><title>electrical: NET-4411ae54eb05</title></polyline>
<polyline points="780.0,234.0 930.0,234.0 930.0,234.0 948.0,234.0" fill="none" stroke="#000000" stroke-width="1" marker-start="url(#arrow)" marker-end="url(#arrow)"><title>electrical: NET-58106926ae95</title></polyline>
<polyline points="780.0,219.0 923.0,219.0 923.0,146.0 948.0,146.0" fill="none" stroke="#000000" stroke-width="1" marker-start="url(#arrow)" marker-end="url(#arrow)"><title>electrical: NET-6ccf32b9fe2e</title></polyline>
<polyline points="1080.0,146.0 1230.0,146.0 1230.0,166.0 1248.0,166.0" fill="none" stroke="#000000" stroke-width="1" marker-start="url(#arrow)" marker-end="url(#arrow)"><title>electrical: NET-e440d18464c1</title></polyline>
<polyline points="780.0,425.0 916.0,425.0 916.0,322.0 948.0,322.0" fill="none" stroke="#000000" stroke-width="1" marker-start="url(#arrow)" marker-end="url(#arrow)"><title>electrical: NET-58788eea8844</title></polyline>
<polyline points="780.0,410.0 1205.0,410.0 1205.0,320.0 1258.0,320.0" fill="none" stroke="#000000" stroke-width="1" marker-start="url(#arrow)" marker-end="url(#arrow)"><title>electrical: NET-4d1ca10e619c</title></polyline>
<polyline points="480.0,219.0 630.0,219.0 630.0,58.0 648.0,58.0" fill="none" stroke="#000000" stroke-width="1" marker-start="url(#arrow)" marker-end="url(#arrow)"><title>electrical: NET-b3df9522a1aa</title></polyline>
<polyline points="480.0,234.0 623.0,234.0 623.0,146.0 648.0,146.0" fill="none" stroke="#000000" stroke-width="1" marker-start="url(#arrow)" marker-end="url(#arrow)"><title>electrical: NET-ee479f5e7ac3</title></polyline>
<polyline points="480.0,249.0 616.0,249.0 616.0,322.0 648.0,322.0" fill="none" stroke="#000000" stroke-width="1" marker-start="url(#arrow)" marker-end="url(#arrow)"><title>electrical: NET-c0b547af3300</title></polyline>
<polyline points="1258.0,272.0 1198.0,272.0 1198.0,249.0 780.0,249.0" fill="none" stroke="#000000" stroke-width="1" marker-start="url(#arrow)" marker-end="url(#arrow)"><title>electrical: NET-7ba8574839c9</title></polyline>
<polyline points="1258.0,308.0 1191.0,308.0 1191.0,395.0 780.0,395.0" fill="none" stroke="#000000" stroke-width="1" marker-start="url(#arrow)" marker-end="url(#arrow)"><title>electrical: NET-4519b17f8f99</title></polyline>
<g><rect x="648" y="28" width="132" height="60" fill="none" stroke="#000000" stroke-width="1.2" stroke-dasharray="5 3"/><text x="714" y="57.0" text-anchor="middle" font-size="12" font-weight="bold" fill="#000000">R10</text><text x="714" y="70.0" text-anchor="middle" font-size="9" fill="#000000">(RESISTOR)</text><title>CMP-13ce27ed6467, unknown: power_rating, tolerance_pct</title></g>
<g><rect x="948" y="204" width="132" height="60" fill="none" stroke="#000000" stroke-width="1.2" stroke-dasharray="5 3"/><text x="1014" y="233.0" text-anchor="middle" font-size="12" font-weight="bold" fill="#000000">R2</text><text x="1014" y="246.0" text-anchor="middle" font-size="9" fill="#000000">(RESISTOR)</text><title>CMP-1749a5a18a37, unknown: power_rating, tolerance_pct</title></g>
<g><rect x="648" y="116" width="132" height="60" fill="none" stroke="#000000" stroke-width="1.2" stroke-dasharray="5 3"/><text x="714" y="145.0" text-anchor="middle" font-size="12" font-weight="bold" fill="#000000">R7</text><text x="714" y="158.0" text-anchor="middle" font-size="9" fill="#000000">(RESISTOR)</text><title>CMP-2122ee180827, unknown: power_rating, tolerance_pct</title></g>
<g><rect x="648" y="292" width="132" height="60" fill="none" stroke="#000000" stroke-width="1.2" stroke-dasharray="5 3"/><text x="714" y="321.0" text-anchor="middle" font-size="12" font-weight="bold" fill="#000000">R6</text><text x="714" y="334.0" text-anchor="middle" font-size="9" fill="#000000">(RESISTOR)</text><title>CMP-3411ae333c6c, unknown: power_rating, tolerance_pct</title></g>
<g><rect x="28" y="160" width="132" height="60" fill="none" stroke="#000000" stroke-width="1.2" stroke-dasharray="5 3"/><text x="94" y="189.0" text-anchor="middle" font-size="12" font-weight="bold" fill="#000000">R1</text><text x="94" y="202.0" text-anchor="middle" font-size="9" fill="#000000">(RESISTOR)</text><title>CMP-390a79be1fe2, unknown: power_rating, tolerance_pct</title></g>
<g><rect x="1248" y="136" width="152" height="60" fill="none" stroke="#000000" stroke-width="1.2"/><text x="1324" y="165.0" text-anchor="middle" font-size="12" font-weight="bold" fill="#000000">R5</text><text x="1324" y="178.0" text-anchor="middle" font-size="9" fill="#000000">(POTENTIOMETER)</text><title>CMP-52cb475cbc08</title></g>
<g><rect x="28" y="248" width="132" height="60" fill="none" stroke="#000000" stroke-width="1.2" stroke-dasharray="5 3"/><text x="94" y="277.0" text-anchor="middle" font-size="12" font-weight="bold" fill="#000000">R9</text><text x="94" y="290.0" text-anchor="middle" font-size="9" fill="#000000">(RESISTOR)</text><title>CMP-654a8a2d2f3a, unknown: power_rating, tolerance_pct</title></g>
<g><rect x="948" y="292" width="132" height="60" fill="none" stroke="#000000" stroke-width="1.2"/><text x="1014" y="321.0" text-anchor="middle" font-size="12" font-weight="bold" fill="#000000">RESET</text><text x="1014" y="334.0" text-anchor="middle" font-size="9" fill="#000000">(SWITCH)</text><title>CMP-74a593ebf2a7</title></g>
<g><rect x="648" y="204" width="132" height="60" fill="none" stroke="#000000" stroke-width="1.2" stroke-dasharray="5 3"/><text x="714" y="233.0" text-anchor="middle" font-size="12" font-weight="bold" fill="#000000">R3</text><text x="714" y="246.0" text-anchor="middle" font-size="9" fill="#000000">(RESISTOR)</text><title>CMP-99ef3f8b2557, unknown: power_rating, tolerance_pct</title></g>
<g><rect x="948" y="116" width="132" height="60" fill="none" stroke="#000000" stroke-width="1.2" stroke-dasharray="5 3"/><text x="1014" y="145.0" text-anchor="middle" font-size="12" font-weight="bold" fill="#000000">R4</text><text x="1014" y="158.0" text-anchor="middle" font-size="9" fill="#000000">(RESISTOR)</text><title>CMP-c139a9a6fa47, unknown: power_rating, tolerance_pct</title></g>
<g><rect x="648" y="380" width="132" height="60" fill="none" stroke="#000000" stroke-width="1.2" stroke-dasharray="5 3"/><text x="714" y="409.0" text-anchor="middle" font-size="12" font-weight="bold" fill="#000000">C_O</text><text x="714" y="422.0" text-anchor="middle" font-size="9" fill="#000000">(CAPACITOR)</text><title>CMP-cffe260ed560, unknown: tolerance_pct, voltage_rating</title></g>
<g><rect x="328" y="204" width="152" height="60" fill="none" stroke="#000000" stroke-width="1.2"/><text x="404" y="233.0" text-anchor="middle" font-size="12" font-weight="bold" fill="#000000">R8</text><text x="404" y="246.0" text-anchor="middle" font-size="9" fill="#000000">(POTENTIOMETER)</text><title>CMP-d7073486dd1c</title></g>
<g><rect x="1258" y="224" width="132" height="108" fill="none" stroke="#000000" stroke-width="1.2"/><text x="1324" y="277.0" text-anchor="middle" font-size="12" font-weight="bold" fill="#000000">AMP</text><text x="1324" y="290.0" text-anchor="middle" font-size="9" fill="#000000">(OPAMP)</text><title>CMP-ed601b553153</title></g>
<text x="1085.0" y="231.5" text-anchor="start" font-size="8" fill="#000000">NON_INVERTING</text>
<text x="785.0" y="143.5" text-anchor="start" font-size="8" fill="#000000">NON_INVERTING</text>
<text x="785.0" y="319.5" text-anchor="start" font-size="8" fill="#000000">INVERTING</text>
<text x="165.0" y="187.5" text-anchor="start" font-size="8" fill="#000000">INVERTING</text>
<text x="165.0" y="275.5" text-anchor="start" font-size="8" fill="#000000">END_A</text>
<text x="1085.0" y="319.5" text-anchor="start" font-size="8" fill="#000000">OUTPUT</text>
<text x="1085.0" y="143.5" text-anchor="start" font-size="8" fill="#000000">END_A</text>
<text x="785.0" y="407.5" text-anchor="start" font-size="8" fill="#000000">OUTPUT</text>
<text x="485.0" y="216.5" text-anchor="start" font-size="8" fill="#000000">END_B</text>
<text x="485.0" y="231.5" text-anchor="start" font-size="8" fill="#000000">WIPER</text>
<text x="485.0" y="246.5" text-anchor="start" font-size="8" fill="#000000">WIPER</text>
<text x="1253.0" y="269.5" text-anchor="end" font-size="8" fill="#000000">OUTPUT</text>
<text x="1253.0" y="305.5" text-anchor="end" font-size="8" fill="#000000">INVERTING</text>
<line x1="28" y1="468" x2="54" y2="468" stroke="#000000" stroke-width="1"/>
<text x="60" y="471.5" font-size="9.5" fill="#000000">ELECTRICAL</text>
<text x="28" y="498" font-size="9.5" fill="#000000">9 node(s) carry unknown parameters; a dashed border marks them</text>
<text x="714.0" y="528" text-anchor="middle" font-size="13" font-weight="bold" letter-spacing="0.08em" fill="#000000">INTERCONNECT</text>
<text x="714.0" y="544" text-anchor="middle" font-size="10" font-style="italic" fill="#000000">What is connected to what?</text>
</svg>
