<svg xmlns="http://www.w3.org/2000/svg" width="460" height="1296" viewBox="0 0 460 1296" font-family="system-ui, sans-serif">
<title>interconnect: What is connected to what?</title>
<rect width="460" height="1296" fill="#ffffff"/>
<text x="28" y="26" font-size="15" font-weight="600" fill="#1b1b1f">interconnect</text>
<text x="28" y="43" font-size="11.5" fill="#5f6368">What is connected to what?</text>
<line x1="28" y1="1120" x2="432" y2="1120" stroke="#c4c7cc" stroke-width="1" stroke-dasharray="3 4"/>
<text x="28" y="1112" font-size="11" fill="#5f6368">nothing in this view connects to these</text>
<path d="M190.0,80.5 C325.0,80.5 325.0,432.5 190.0,432.5" fill="none" stroke="#5f6368" stroke-width="1.5" stroke-linecap="round" opacity="0.85"><title>electrical: NET-0ca3378aee6b</title></path>
<path d="M190.0,87.5 C325.0,87.5 325.0,439.5 190.0,439.5" fill="none" stroke="#5f6368" stroke-width="1.5" stroke-linecap="round" opacity="0.85"><title>electrical: NET-2a8ba4ef04ef</title></path>
<path d="M190.0,168.5 C281.0,168.5 299.0,344.5 208.0,344.5" fill="none" stroke="#5f6368" stroke-width="1.5" stroke-linecap="round" opacity="0.85"><title>electrical: NET-4411ae54eb05</title></path>
<path d="M190.0,175.5 C281.0,175.5 299.0,351.5 208.0,351.5" fill="none" stroke="#5f6368" stroke-width="1.5" stroke-linecap="round" opacity="0.85"><title>electrical: NET-ed0c09a43ef3</title></path>
<path d="M190.0,168.5 C347.0,168.5 347.0,608.5 190.0,608.5" fill="none" stroke="#5f6368" stroke-width="1.5" stroke-linecap="round" opacity="0.85"><title>electrical: NET-53011e0d8d25</title></path>
<path d="M190.0,175.5 C347.0,175.5 347.0,615.5 190.0,615.5" fill="none" stroke="#5f6368" stroke-width="1.5" stroke-linecap="round" opacity="0.85"><title>electrical: NET-db67c5b75ca7</title></path>
<path d="M190.0,256.5 C325.0,256.5 325.0,608.5 190.0,608.5" fill="none" stroke="#5f6368" stroke-width="1.5" stroke-linecap="round" opacity="0.85"><title>electrical: NET-01b7014be933</title></path>
<path d="M190.0,263.5 C325.0,263.5 325.0,615.5 190.0,615.5" fill="none" stroke="#5f6368" stroke-width="1.5" stroke-linecap="round" opacity="0.85"><title>electrical: NET-80ce03b06ade</title></path>
<path d="M190.0,256.5 C391.0,256.5 405.0,872.5 204.0,872.5" fill="none" stroke="#5f6368" stroke-width="1.5" stroke-linecap="round" opacity="0.85"><title>electrical: NET-58788eea8844</title></path>
<path d="M190.0,263.5 C391.0,263.5 405.0,879.5 204.0,879.5" fill="none" stroke="#5f6368" stroke-width="1.5" stroke-linecap="round" opacity="0.85"><title>electrical: NET-b6046db85658</title></path>
<path d="M208.0,344.5 C409.0,344.5 421.0,960.5 220.0,960.5" fill="none" stroke="#5f6368" stroke-width="1.5" stroke-linecap="round" opacity="0.85"><title>electrical: NET-a060544611fc</title></path>
<path d="M208.0,351.5 C409.0,351.5 421.0,967.5 220.0,967.5" fill="none" stroke="#5f6368" stroke-width="1.5" stroke-linecap="round" opacity="0.85"><title>electrical: NET-b178a16233db</title></path>
<path d="M190.0,432.5 C325.0,432.5 325.0,784.5 190.0,784.5" fill="none" stroke="#5f6368" stroke-width="1.5" stroke-linecap="round" opacity="0.85"><title>electrical: NET-c42280bad0a5</title></path>
<path d="M190.0,439.5 C325.0,439.5 325.0,791.5 190.0,791.5" fill="none" stroke="#5f6368" stroke-width="1.5" stroke-linecap="round" opacity="0.85"><title>electrical: NET-e3bff07e49e2</title></path>
<path d="M190.0,520.5 C325.0,520.5 325.0,168.5 190.0,168.5" fill="none" stroke="#5f6368" stroke-width="1.5" stroke-linecap="round" opacity="0.85"><title>electrical: NET-4d1ca10e619c</title></path>
<path d="M190.0,527.5 C325.0,527.5 325.0,175.5 190.0,175.5" fill="none" stroke="#5f6368" stroke-width="1.5" stroke-linecap="round" opacity="0.85"><title>electrical: NET-4f78a784eb7e</title></path>
<path d="M190.0,520.5 C303.0,520.5 303.0,256.5 190.0,256.5" fill="none" stroke="#5f6368" stroke-width="1.5" stroke-linecap="round" opacity="0.85"><title>electrical: NET-4519b17f8f99</title></path>
<path d="M190.0,527.5 C303.0,527.5 303.0,263.5 190.0,263.5" fill="none" stroke="#5f6368" stroke-width="1.5" stroke-linecap="round" opacity="0.85"><title>electrical: NET-542450c0631a</title></path>
<path d="M190.0,608.5 C369.0,608.5 369.0,80.5 190.0,80.5" fill="none" stroke="#5f6368" stroke-width="1.5" stroke-linecap="round" opacity="0.85"><title>electrical: NET-b2b52c031d2a</title></path>
<path d="M190.0,615.5 C369.0,615.5 369.0,87.5 190.0,87.5" fill="none" stroke="#5f6368" stroke-width="1.5" stroke-linecap="round" opacity="0.85"><title>electrical: NET-b3df9522a1aa</title></path>
<path d="M190.0,608.5 C325.0,608.5 355.0,960.5 220.0,960.5" fill="none" stroke="#5f6368" stroke-width="1.5" stroke-linecap="round" opacity="0.85"><title>electrical: NET-c0b547af3300</title></path>
<path d="M190.0,615.5 C325.0,615.5 355.0,967.5 220.0,967.5" fill="none" stroke="#5f6368" stroke-width="1.5" stroke-linecap="round" opacity="0.85"><title>electrical: NET-f053e5541496</title></path>
<path d="M190.0,696.5 C281.0,696.5 281.0,520.5 190.0,520.5" fill="none" stroke="#5f6368" stroke-width="1.5" stroke-linecap="round" opacity="0.85"><title>electrical: NET-0d0c279fcba8</title></path>
<path d="M190.0,703.5 C281.0,703.5 281.0,527.5 190.0,527.5" fill="none" stroke="#5f6368" stroke-width="1.5" stroke-linecap="round" opacity="0.85"><title>electrical: NET-59321d691cbc</title></path>
<path d="M190.0,784.5 C259.0,784.5 259.0,696.5 190.0,696.5" fill="none" stroke="#5f6368" stroke-width="1.5" stroke-linecap="round" opacity="0.85"><title>electrical: NET-601435c64e5a</title></path>
<path d="M190.0,791.5 C259.0,791.5 259.0,703.5 190.0,703.5" fill="none" stroke="#5f6368" stroke-width="1.5" stroke-linecap="round" opacity="0.85"><title>electrical: NET-dd1fe7b3f522</title></path>
<path d="M190.0,784.5 C303.0,784.5 321.0,1048.5 208.0,1048.5" fill="none" stroke="#5f6368" stroke-width="1.5" stroke-linecap="round" opacity="0.85"><title>electrical: NET-7ba8574839c9</title></path>
<path d="M190.0,791.5 C303.0,791.5 321.0,1055.5 208.0,1055.5" fill="none" stroke="#5f6368" stroke-width="1.5" stroke-linecap="round" opacity="0.85"><title>electrical: NET-ff7cea02f9fb</title></path>
<path d="M204.0,872.5 C383.0,872.5 387.0,344.5 208.0,344.5" fill="none" stroke="#5f6368" stroke-width="1.5" stroke-linecap="round" opacity="0.85"><title>electrical: NET-76e0d034f372</title></path>
<path d="M204.0,879.5 C383.0,879.5 387.0,351.5 208.0,351.5" fill="none" stroke="#5f6368" stroke-width="1.5" stroke-linecap="round" opacity="0.85"><title>electrical: NET-e79ddc2abd42</title></path>
<path d="M220.0,960.5 C399.0,960.5 369.0,432.5 190.0,432.5" fill="none" stroke="#5f6368" stroke-width="1.5" stroke-linecap="round" opacity="0.85"><title>electrical: NET-65e5a48f19c8</title></path>
<path d="M220.0,967.5 C399.0,967.5 369.0,439.5 190.0,439.5" fill="none" stroke="#5f6368" stroke-width="1.5" stroke-linecap="round" opacity="0.85"><title>electrical: NET-ee479f5e7ac3</title></path>
<g><rect x="28" y="1146" width="132" height="60" rx="8" fill="#f1f3f4" stroke="#c4c7cc" stroke-width="1"/><text x="94" y="1172" text-anchor="middle" font-size="13" font-weight="500" fill="#1b1b1f">Ladder</text><text x="94" y="1189" text-anchor="middle" font-size="10.5" fill="#5f6368">block</text><title>BLK-42978eb8675a</title></g>
<g><rect x="58" y="54" width="132" height="60" rx="8" fill="#ffffff" stroke="#b3261e" stroke-dasharray="4 3" stroke-width="1"/><text x="124" y="80" text-anchor="middle" font-size="13" font-weight="500" fill="#1b1b1f">r_left_leg</text><text x="124" y="97" text-anchor="middle" font-size="10.5" fill="#5f6368">Resistor</text><title>CMP-4cd91a17117e — unknown: power_rating, tolerance_pct</title></g>
<g><rect x="58" y="142" width="132" height="60" rx="8" fill="#ffffff" stroke="#b3261e" stroke-dasharray="4 3" stroke-width="1"/><text x="124" y="168" text-anchor="middle" font-size="13" font-weight="500" fill="#1b1b1f">r_right</text><text x="124" y="185" text-anchor="middle" font-size="10.5" fill="#5f6368">Resistor</text><title>CMP-526797adc2d0 — unknown: power_rating, tolerance_pct</title></g>
<g><rect x="58" y="230" width="132" height="60" rx="8" fill="#ffffff" stroke="#b3261e" stroke-dasharray="4 3" stroke-width="1"/><text x="124" y="256" text-anchor="middle" font-size="13" font-weight="500" fill="#1b1b1f">r_left</text><text x="124" y="273" text-anchor="middle" font-size="10.5" fill="#5f6368">Resistor</text><title>CMP-819f18b962e2 — unknown: power_rating, tolerance_pct</title></g>
<g><rect x="40" y="318" width="168" height="60" rx="8" fill="#ffffff" stroke="#b3261e" stroke-dasharray="4 3" stroke-width="1"/><text x="124" y="344" text-anchor="middle" font-size="13" font-weight="500" fill="#1b1b1f">r_top_right_spoke</text><text x="124" y="361" text-anchor="middle" font-size="10.5" fill="#5f6368">Resistor</text><title>CMP-81a8d38b564a — unknown: power_rating, tolerance_pct</title></g>
<g><rect x="58" y="406" width="132" height="60" rx="8" fill="#ffffff" stroke="#b3261e" stroke-dasharray="4 3" stroke-width="1"/><text x="124" y="432" text-anchor="middle" font-size="13" font-weight="500" fill="#1b1b1f">r_right_leg</text><text x="124" y="449" text-anchor="middle" font-size="10.5" fill="#5f6368">Resistor</text><title>CMP-92d463895ba1 — unknown: power_rating, tolerance_pct</title></g>
<g><rect x="58" y="494" width="132" height="60" rx="8" fill="#ffffff" stroke="#b3261e" stroke-dasharray="4 3" stroke-width="1"/><text x="124" y="520" text-anchor="middle" font-size="13" font-weight="500" fill="#1b1b1f">r_top</text><text x="124" y="537" text-anchor="middle" font-size="10.5" fill="#5f6368">Resistor</text><title>CMP-9ea70a3ed2b2 — unknown: power_rating, tolerance_pct</title></g>
<g><rect x="58" y="582" width="132" height="60" rx="8" fill="#ffffff" stroke="#b3261e" stroke-dasharray="4 3" stroke-width="1"/><text x="124" y="608" text-anchor="middle" font-size="13" font-weight="500" fill="#1b1b1f">r_bottom</text><text x="124" y="625" text-anchor="middle" font-size="10.5" fill="#5f6368">Resistor</text><title>CMP-aa1b7e8d99e4 — unknown: power_rating, tolerance_pct</title></g>
<g><rect x="58" y="670" width="132" height="60" rx="8" fill="#ffffff" stroke="#b3261e" stroke-dasharray="4 3" stroke-width="1"/><text x="124" y="696" text-anchor="middle" font-size="13" font-weight="500" fill="#1b1b1f">r</text><text x="124" y="713" text-anchor="middle" font-size="10.5" fill="#5f6368">Resistor</text><title>CMP-cebf1455e844 — unknown: power_rating, tolerance_pct</title></g>
<g><rect x="58" y="758" width="132" height="60" rx="8" fill="#ffffff" stroke="#c4c7cc" stroke-width="1"/><text x="124" y="784" text-anchor="middle" font-size="13" font-weight="500" fill="#1b1b1f">battery</text><text x="124" y="801" text-anchor="middle" font-size="10.5" fill="#5f6368">Battery</text><title>CMP-d1047166a495</title></g>
<g><rect x="44" y="846" width="160" height="60" rx="8" fill="#ffffff" stroke="#b3261e" stroke-dasharray="4 3" stroke-width="1"/><text x="124" y="872" text-anchor="middle" font-size="13" font-weight="500" fill="#1b1b1f">r_top_left_spoke</text><text x="124" y="889" text-anchor="middle" font-size="10.5" fill="#5f6368">Resistor</text><title>CMP-e6bd3daff048 — unknown: power_rating, tolerance_pct</title></g>
<g><rect x="28" y="934" width="192" height="60" rx="8" fill="#ffffff" stroke="#b3261e" stroke-dasharray="4 3" stroke-width="1"/><text x="124" y="960" text-anchor="middle" font-size="13" font-weight="500" fill="#1b1b1f">r_bottom_right_spoke</text><text x="124" y="977" text-anchor="middle" font-size="10.5" fill="#5f6368">Resistor</text><title>CMP-f62f15397698 — unknown: power_rating, tolerance_pct</title></g>
<g><rect x="40" y="1022" width="168" height="60" rx="8" fill="#ffffff" stroke="#c4c7cc" stroke-width="1"/><text x="124" y="1048" text-anchor="middle" font-size="13" font-weight="500" fill="#1b1b1f">reference</text><text x="124" y="1065" text-anchor="middle" font-size="10.5" fill="#5f6368">GroundReference</text><title>CMP-fe129c51b056</title></g>
<line x1="28" y1="1234" x2="48" y2="1234" stroke="#5f6368" stroke-width="1.5" stroke-linecap="round"/>
<text x="54" y="1238" font-size="11" fill="#5f6368">electrical</text>
<text x="28" y="1262" font-size="11" fill="#b3261e">10 node(s) carry unknown parameters; a dashed border marks them</text>
</svg>
