<svg xmlns="http://www.w3.org/2000/svg" width="568" height="1672" viewBox="0 0 568 1672" font-family="Helvetica, Arial, sans-serif">
<title>interconnect: What is connected to what?</title>
<defs><marker id="arrow" viewBox="0 0 8 8" refX="7.5" refY="4" markerWidth="6" markerHeight="6" orient="auto-start-reverse"><path d="M0,0.8 L8,4 L0,7.2 Z" fill="#000000"/></marker></defs>
<line x1="28" y1="1470" x2="540" y2="1470" stroke="#000000" stroke-width="0.6" stroke-dasharray="2 4"/>
<text x="28" y="1463" font-size="9" fill="#000000">NOTHING IN THIS VIEW CONNECTS TO THESE</text>
<polyline points="244.4,1048.0 244.4,1162.0 54.4,1162.0 54.4,1180.0" fill="none" stroke="#000000" stroke-width="1" marker-start="url(#arrow)" marker-end="url(#arrow)"><title>electrical: NET-0ca3378aee6b</title></polyline>
<polyline points="270.8,1048.0 270.8,1155.0 80.8,1155.0 80.8,1180.0" fill="none" stroke="#000000" stroke-width="1" marker-start="url(#arrow)" marker-end="url(#arrow)"><title>electrical: NET-2a8ba4ef04ef</title></polyline>
<polyline points="297.2,1048.0 297.2,1148.0 107.2,1148.0 107.2,1180.0" fill="none" stroke="#000000" stroke-width="1" marker-start="url(#arrow)" marker-end="url(#arrow)"><title>electrical: NET-76e0d034f372</title></polyline>
<polyline points="323.6,1048.0 323.6,1141.0 133.6,1141.0 133.6,1180.0" fill="none" stroke="#000000" stroke-width="1" marker-start="url(#arrow)" marker-end="url(#arrow)"><title>electrical: NET-e79ddc2abd42</title></polyline>
<polyline points="152.4,664.0 152.4,778.0 72.4,778.0 72.4,796.0" fill="none" stroke="#000000" stroke-width="1" marker-start="url(#arrow)" marker-end="url(#arrow)"><title>electrical: NET-4d1ca10e619c</title></polyline>
<polyline points="178.8,664.0 178.8,771.0 98.8,771.0 98.8,796.0" fill="none" stroke="#000000" stroke-width="1" marker-start="url(#arrow)" marker-end="url(#arrow)"><title>electrical: NET-4f78a784eb7e</title></polyline>
<polyline points="205.2,664.0 205.2,764.0 125.2,764.0 125.2,796.0" fill="none" stroke="#000000" stroke-width="1" marker-start="url(#arrow)" marker-end="url(#arrow)"><title>electrical: NET-58788eea8844</title></polyline>
<polyline points="231.6,664.0 231.6,757.0 151.6,757.0 151.6,796.0" fill="none" stroke="#000000" stroke-width="1" marker-start="url(#arrow)" marker-end="url(#arrow)"><title>electrical: NET-b6046db85658</title></polyline>
<polyline points="90.0,856.0 90.0,970.0 262.0,970.0 262.0,988.0" fill="none" stroke="#000000" stroke-width="1" marker-start="url(#arrow)" marker-end="url(#arrow)"><title>electrical: NET-4411ae54eb05</title></polyline>
<polyline points="134.0,856.0 134.0,963.0 306.0,963.0 306.0,988.0" fill="none" stroke="#000000" stroke-width="1" marker-start="url(#arrow)" marker-end="url(#arrow)"><title>electrical: NET-ed0c09a43ef3</title></polyline>
<polyline points="262.0,88.0 262.0,202.0 262.0,202.0 262.0,220.0" fill="none" stroke="#000000" stroke-width="1" marker-start="url(#arrow)" marker-end="url(#arrow)"><title>electrical: NET-601435c64e5a</title></polyline>
<polyline points="306.0,88.0 306.0,195.0 306.0,195.0 306.0,220.0" fill="none" stroke="#000000" stroke-width="1" marker-start="url(#arrow)" marker-end="url(#arrow)"><title>electrical: NET-dd1fe7b3f522</title></polyline>
<polyline points="262.0,856.0 262.0,874.0 186.0,874.0 186.0,1354.0 312.3,1354.0 312.3,1372.0" fill="none" stroke="#000000" stroke-width="1" marker-start="url(#arrow)" marker-end="url(#arrow)"><title>electrical: NET-b2b52c031d2a</title></polyline>
<polyline points="306.0,856.0 306.0,881.0 358.0,881.0 358.0,1347.0 331.1,1347.0 331.1,1372.0" fill="none" stroke="#000000" stroke-width="1" marker-start="url(#arrow)" marker-end="url(#arrow)"><title>electrical: NET-b3df9522a1aa</title></polyline>
<polyline points="72.0,1240.0 72.0,1340.0 236.9,1340.0 236.9,1372.0" fill="none" stroke="#000000" stroke-width="1" marker-start="url(#arrow)" marker-end="url(#arrow)"><title>electrical: NET-c42280bad0a5</title></polyline>
<polyline points="116.0,1240.0 116.0,1333.0 255.7,1333.0 255.7,1372.0" fill="none" stroke="#000000" stroke-width="1" marker-start="url(#arrow)" marker-end="url(#arrow)"><title>electrical: NET-e3bff07e49e2</title></polyline>
<polyline points="262.0,280.0 262.0,394.0 260.0,394.0 260.0,412.0" fill="none" stroke="#000000" stroke-width="1" marker-start="url(#arrow)" marker-end="url(#arrow)"><title>electrical: NET-0d0c279fcba8</title></polyline>
<polyline points="306.0,280.0 306.0,387.0 308.0,387.0 308.0,412.0" fill="none" stroke="#000000" stroke-width="1" marker-start="url(#arrow)" marker-end="url(#arrow)"><title>electrical: NET-59321d691cbc</title></polyline>
<polyline points="279.2,1240.0 279.2,1258.0 428.0,1258.0 428.0,1240.0" fill="none" stroke="#000000" stroke-width="1" marker-start="url(#arrow)" marker-end="url(#arrow)"><title>electrical: NET-58106926ae95</title></polyline>
<polyline points="305.6,1240.0 305.6,1265.0 484.0,1265.0 484.0,1240.0" fill="none" stroke="#000000" stroke-width="1" marker-start="url(#arrow)" marker-end="url(#arrow)"><title>electrical: NET-888d56cd279a</title></polyline>
<polyline points="274.6,1372.0 274.6,1326.0 226.4,1326.0 226.4,1240.0" fill="none" stroke="#000000" stroke-width="1" marker-start="url(#arrow)" marker-end="url(#arrow)"><title>electrical: NET-7ba8574839c9</title></polyline>
<polyline points="293.4,1372.0 293.4,1319.0 252.8,1319.0 252.8,1240.0" fill="none" stroke="#000000" stroke-width="1" marker-start="url(#arrow)" marker-end="url(#arrow)"><title>electrical: NET-ff7cea02f9fb</title></polyline>
<polyline points="434.0,856.0 434.0,1134.0 244.0,1134.0 244.0,1180.0" fill="none" stroke="#000000" stroke-width="1" marker-start="url(#arrow)" marker-end="url(#arrow)"><title>electrical: NET-65e5a48f19c8</title></polyline>
<polyline points="478.0,856.0 478.0,1127.0 288.0,1127.0 288.0,1180.0" fill="none" stroke="#000000" stroke-width="1" marker-start="url(#arrow)" marker-end="url(#arrow)"><title>electrical: NET-ee479f5e7ac3</title></polyline>
<polyline points="326.8,664.0 326.8,750.0 262.0,750.0 262.0,796.0" fill="none" stroke="#000000" stroke-width="1" marker-start="url(#arrow)" marker-end="url(#arrow)"><title>electrical: NET-01b7014be933</title></polyline>
<polyline points="355.6,664.0 355.6,743.0 306.0,743.0 306.0,796.0" fill="none" stroke="#000000" stroke-width="1" marker-start="url(#arrow)" marker-end="url(#arrow)"><title>electrical: NET-80ce03b06ade</title></polyline>
<polyline points="384.4,664.0 384.4,736.0 434.0,736.0 434.0,796.0" fill="none" stroke="#000000" stroke-width="1" marker-start="url(#arrow)" marker-end="url(#arrow)"><title>electrical: NET-c0b547af3300</title></polyline>
<polyline points="413.2,664.0 413.2,729.0 478.0,729.0 478.0,796.0" fill="none" stroke="#000000" stroke-width="1" marker-start="url(#arrow)" marker-end="url(#arrow)"><title>electrical: NET-f053e5541496</title></polyline>
<polyline points="232.6,472.0 232.6,586.0 170.0,586.0 170.0,604.0" fill="none" stroke="#000000" stroke-width="1" marker-start="url(#arrow)" marker-end="url(#arrow)"><title>electrical: NET-4519b17f8f99</title></polyline>
<polyline points="253.1,472.0 253.1,579.0 214.0,579.0 214.0,604.0" fill="none" stroke="#000000" stroke-width="1" marker-start="url(#arrow)" marker-end="url(#arrow)"><title>electrical: NET-542450c0631a</title></polyline>
<polyline points="273.7,472.0 273.7,572.0 326.8,572.0 326.8,604.0" fill="none" stroke="#000000" stroke-width="1" marker-start="url(#arrow)" marker-end="url(#arrow)"><title>electrical: NET-53011e0d8d25</title></polyline>
<polyline points="294.3,472.0 294.3,565.0 355.6,565.0 355.6,604.0" fill="none" stroke="#000000" stroke-width="1" marker-start="url(#arrow)" marker-end="url(#arrow)"><title>electrical: NET-a060544611fc</title></polyline>
<polyline points="314.9,472.0 314.9,558.0 384.4,558.0 384.4,604.0" fill="none" stroke="#000000" stroke-width="1" marker-start="url(#arrow)" marker-end="url(#arrow)"><title>electrical: NET-b178a16233db</title></polyline>
<polyline points="335.4,472.0 335.4,551.0 413.2,551.0 413.2,604.0" fill="none" stroke="#000000" stroke-width="1" marker-start="url(#arrow)" marker-end="url(#arrow)"><title>electrical: NET-db67c5b75ca7</title></polyline>
<g><rect x="28" y="1496" width="152" height="60" fill="none" stroke="#000000" stroke-width="1.2"/><text x="104" y="1525.0" text-anchor="middle" font-size="12" font-weight="bold" fill="#000000">NONINVERTINGAMP</text><text x="104" y="1538.0" text-anchor="middle" font-size="9" fill="#000000">(BLOCK)</text><title>BLK-42978eb8675a</title></g>
<g><rect x="218" y="988" width="132" height="60" fill="none" stroke="#000000" stroke-width="1.2" stroke-dasharray="5 3"/><text x="284" y="1017.0" text-anchor="middle" font-size="12" font-weight="bold" fill="#000000">R_BIAS_LOWER</text><text x="284" y="1030.0" text-anchor="middle" font-size="9" fill="#000000">(RESISTOR)</text><title>CMP-09cfbd604e38, unknown: power_rating, tolerance_pct</title></g>
<g><rect x="126" y="604" width="132" height="60" fill="none" stroke="#000000" stroke-width="1.2" stroke-dasharray="5 3"/><text x="192" y="633.0" text-anchor="middle" font-size="12" font-weight="bold" fill="#000000">R_BIAS_UPPER</text><text x="192" y="646.0" text-anchor="middle" font-size="9" fill="#000000">(RESISTOR)</text><title>CMP-1886ca15d13a, unknown: power_rating, tolerance_pct</title></g>
<g><rect x="46" y="796" width="132" height="60" fill="none" stroke="#000000" stroke-width="1.2" stroke-dasharray="5 3"/><text x="112" y="825.0" text-anchor="middle" font-size="12" font-weight="bold" fill="#000000">R_SERIES</text><text x="112" y="838.0" text-anchor="middle" font-size="9" fill="#000000">(RESISTOR)</text><title>CMP-1974a36a0bec, unknown: power_rating, tolerance_pct</title></g>
<g><rect x="218" y="28" width="132" height="60" fill="none" stroke="#000000" stroke-width="1.2"/><text x="284" y="57.0" text-anchor="middle" font-size="12" font-weight="bold" fill="#000000">SOURCE</text><text x="284" y="70.0" text-anchor="middle" font-size="9" fill="#000000">(TESTPOINT)</text><title>CMP-3219377790fa</title></g>
<g><rect x="218" y="796" width="132" height="60" fill="none" stroke="#000000" stroke-width="1.2" stroke-dasharray="5 3"/><text x="284" y="825.0" text-anchor="middle" font-size="12" font-weight="bold" fill="#000000">R_GAIN</text><text x="284" y="838.0" text-anchor="middle" font-size="9" fill="#000000">(RESISTOR)</text><title>CMP-4b1aad7cd2b4, unknown: power_rating, tolerance_pct</title></g>
<g><rect x="28" y="1180" width="132" height="60" fill="none" stroke="#000000" stroke-width="1.2" stroke-dasharray="5 3"/><text x="94" y="1209.0" text-anchor="middle" font-size="12" font-weight="bold" fill="#000000">C_BIAS</text><text x="94" y="1222.0" text-anchor="middle" font-size="9" fill="#000000">(CAPACITOR)</text><title>CMP-65ee0edcbc2a, unknown: tolerance_pct, voltage_rating</title></g>
<g><rect x="218" y="220" width="132" height="60" fill="none" stroke="#000000" stroke-width="1.2" stroke-dasharray="5 3"/><text x="284" y="249.0" text-anchor="middle" font-size="12" font-weight="bold" fill="#000000">C_IN</text><text x="284" y="262.0" text-anchor="middle" font-size="9" fill="#000000">(CAPACITOR)</text><title>CMP-80ddc77eef74, unknown: tolerance_pct, voltage_rating</title></g>
<g><rect x="200" y="1180" width="132" height="60" fill="none" stroke="#000000" stroke-width="1.2" stroke-dasharray="5 3"/><text x="266" y="1209.0" text-anchor="middle" font-size="12" font-weight="bold" fill="#000000">R_LOAD</text><text x="266" y="1222.0" text-anchor="middle" font-size="9" fill="#000000">(RESISTOR)</text><title>CMP-8cf6153ec1bd, unknown: power_rating, tolerance_pct</title></g>
<g><rect x="218" y="1372" width="132" height="60" fill="none" stroke="#000000" stroke-width="1.2" stroke-dasharray="5 3"/><text x="284" y="1401.0" text-anchor="middle" font-size="12" font-weight="bold" fill="#000000">C_GAIN</text><text x="284" y="1414.0" text-anchor="middle" font-size="9" fill="#000000">(CAPACITOR)</text><title>CMP-9efa396e94ee, unknown: tolerance_pct, voltage_rating</title></g>
<g><rect x="390" y="796" width="132" height="60" fill="none" stroke="#000000" stroke-width="1.2" stroke-dasharray="5 3"/><text x="456" y="825.0" text-anchor="middle" font-size="12" font-weight="bold" fill="#000000">C_OUT</text><text x="456" y="838.0" text-anchor="middle" font-size="9" fill="#000000">(CAPACITOR)</text><title>CMP-d0f40f6fc9a3, unknown: tolerance_pct, voltage_rating</title></g>
<g><rect x="298" y="604" width="144" height="60" fill="none" stroke="#000000" stroke-width="1.2" stroke-dasharray="5 3"/><text x="370" y="633.0" text-anchor="middle" font-size="12" font-weight="bold" fill="#000000">R_FEEDBACK</text><text x="370" y="646.0" text-anchor="middle" font-size="9" fill="#000000">(RESISTOR)</text><title>CMP-d344d52555c1, unknown: power_rating, tolerance_pct</title></g>
<g><rect x="212" y="412" width="144" height="60" fill="none" stroke="#000000" stroke-width="1.2"/><text x="284" y="441.0" text-anchor="middle" font-size="12" font-weight="bold" fill="#000000">AMP</text><text x="284" y="454.0" text-anchor="middle" font-size="9" fill="#000000">(OPAMP)</text><title>CMP-ed601b553153</title></g>
<g><rect x="372" y="1180" width="168" height="60" fill="none" stroke="#000000" stroke-width="1.2"/><text x="456" y="1209.0" text-anchor="middle" font-size="12" font-weight="bold" fill="#000000">REFERENCE</text><text x="456" y="1222.0" text-anchor="middle" font-size="9" fill="#000000">(GROUNDREFERENCE)</text><title>CMP-fe129c51b056</title></g>
<text x="265.0" y="289.0" text-anchor="start" font-size="8" fill="#000000">IN_PLUS</text>
<text x="309.0" y="289.0" text-anchor="start" font-size="8" fill="#000000">NON_INVERTING</text>
<text x="235.6" y="481.0" text-anchor="start" font-size="8" fill="#000000">NON_INVERTING</text>
<text x="256.1" y="481.0" text-anchor="start" font-size="8" fill="#000000">IN_PLUS</text>
<text x="276.7" y="481.0" text-anchor="start" font-size="8" fill="#000000">OUTPUT</text>
<text x="297.3" y="481.0" text-anchor="start" font-size="8" fill="#000000">INVERTING</text>
<text x="317.9" y="481.0" text-anchor="start" font-size="8" fill="#000000">IN_MINUS</text>
<text x="338.4" y="481.0" text-anchor="start" font-size="8" fill="#000000">OUT</text>
<line x1="28" y1="1584" x2="54" y2="1584" stroke="#000000" stroke-width="1"/>
<text x="60" y="1587.5" font-size="9.5" fill="#000000">ELECTRICAL</text>
<text x="28" y="1614" font-size="9.5" fill="#000000">10 node(s) carry unknown parameters; a dashed border marks them</text>
<text x="284.0" y="1644" text-anchor="middle" font-size="13" font-weight="bold" letter-spacing="0.08em" fill="#000000">INTERCONNECT</text>
<text x="284.0" y="1660" text-anchor="middle" font-size="10" font-style="italic" fill="#000000">What is connected to what?</text>
</svg>
