<svg xmlns="http://www.w3.org/2000/svg" width="2324" height="552" viewBox="0 0 2324 552" font-family="Helvetica, Arial, sans-serif">
<title>interconnect: What is connected to what?</title>
<defs><marker id="arrow" viewBox="0 0 8 8" refX="7.5" refY="4" markerWidth="6" markerHeight="6" orient="auto-start-reverse"><path d="M0,0.8 L8,4 L0,7.2 Z" fill="#000000"/></marker></defs>
<line x1="28" y1="350" x2="2296" y2="350" stroke="#000000" stroke-width="0.6" stroke-dasharray="2 4"/>
<text x="28" y="343" font-size="9" fill="#000000">NOTHING IN THIS VIEW CONNECTS TO THESE</text>
<polyline points="1660.0,144.8 1828.0,144.8 1828.0,44.8 1846.0,44.8" fill="none" stroke="#000000" stroke-width="1" marker-start="url(#arrow)" marker-end="url(#arrow)"><title>electrical: NET-0ca3378aee6b</title></polyline>
<polyline points="1660.0,161.6 1821.0,161.6 1821.0,61.6 1846.0,61.6" fill="none" stroke="#000000" stroke-width="1" marker-start="url(#arrow)" marker-end="url(#arrow)"><title>electrical: NET-2a8ba4ef04ef</title></polyline>
<polyline points="1660.0,178.4 1814.0,178.4 1814.0,78.4 1846.0,78.4" fill="none" stroke="#000000" stroke-width="1" marker-start="url(#arrow)" marker-end="url(#arrow)"><title>electrical: NET-76e0d034f372</title></polyline>
<polyline points="1660.0,195.2 1807.0,195.2 1807.0,95.2 1846.0,95.2" fill="none" stroke="#000000" stroke-width="1" marker-start="url(#arrow)" marker-end="url(#arrow)"><title>electrical: NET-e79ddc2abd42</title></polyline>
<polyline points="1060.0,76.8 1210.0,76.8 1210.0,56.8 1228.0,56.8" fill="none" stroke="#000000" stroke-width="1" marker-start="url(#arrow)" marker-end="url(#arrow)"><title>electrical: NET-4d1ca10e619c</title></polyline>
<polyline points="1060.0,93.6 1203.0,93.6 1203.0,73.6 1228.0,73.6" fill="none" stroke="#000000" stroke-width="1" marker-start="url(#arrow)" marker-end="url(#arrow)"><title>electrical: NET-4f78a784eb7e</title></polyline>
<polyline points="1060.0,110.4 1196.0,110.4 1196.0,90.4 1228.0,90.4" fill="none" stroke="#000000" stroke-width="1" marker-start="url(#arrow)" marker-end="url(#arrow)"><title>electrical: NET-58788eea8844</title></polyline>
<polyline points="1060.0,127.2 1189.0,127.2 1189.0,107.2 1228.0,107.2" fill="none" stroke="#000000" stroke-width="1" marker-start="url(#arrow)" marker-end="url(#arrow)"><title>electrical: NET-b6046db85658</title></polyline>
<polyline points="1360.0,68.0 1510.0,68.0 1510.0,156.0 1528.0,156.0" fill="none" stroke="#000000" stroke-width="1" marker-start="url(#arrow)" marker-end="url(#arrow)"><title>electrical: NET-4411ae54eb05</title></polyline>
<polyline points="1360.0,96.0 1503.0,96.0 1503.0,184.0 1528.0,184.0" fill="none" stroke="#000000" stroke-width="1" marker-start="url(#arrow)" marker-end="url(#arrow)"><title>electrical: NET-ed0c09a43ef3</title></polyline>
<polyline points="160.0,160.0 310.0,160.0 310.0,160.0 328.0,160.0" fill="none" stroke="#000000" stroke-width="1" marker-start="url(#arrow)" marker-end="url(#arrow)"><title>electrical: NET-601435c64e5a</title></polyline>
<polyline points="160.0,180.0 303.0,180.0 303.0,180.0 328.0,180.0" fill="none" stroke="#000000" stroke-width="1" marker-start="url(#arrow)" marker-end="url(#arrow)"><title>electrical: NET-dd1fe7b3f522</title></polyline>
<polyline points="1360.0,172.0 1378.0,172.0 1378.0,238.0 2146.0,238.0 2146.0,164.0 2164.0,164.0" fill="none" stroke="#000000" stroke-width="1" marker-start="url(#arrow)" marker-end="url(#arrow)"><title>electrical: NET-b2b52c031d2a</title></polyline>
<polyline points="1360.0,192.0 1385.0,192.0 1385.0,238.0 2139.0,238.0 2139.0,176.0 2164.0,176.0" fill="none" stroke="#000000" stroke-width="1" marker-start="url(#arrow)" marker-end="url(#arrow)"><title>electrical: NET-b3df9522a1aa</title></polyline>
<polyline points="1978.0,56.0 2132.0,56.0 2132.0,140.0 2164.0,140.0" fill="none" stroke="#000000" stroke-width="1" marker-start="url(#arrow)" marker-end="url(#arrow)"><title>electrical: NET-c42280bad0a5</title></polyline>
<polyline points="1978.0,84.0 2125.0,84.0 2125.0,152.0 2164.0,152.0" fill="none" stroke="#000000" stroke-width="1" marker-start="url(#arrow)" marker-end="url(#arrow)"><title>electrical: NET-e3bff07e49e2</title></polyline>
<polyline points="460.0,160.0 610.0,160.0 610.0,152.0 628.0,152.0" fill="none" stroke="#000000" stroke-width="1" marker-start="url(#arrow)" marker-end="url(#arrow)"><title>electrical: NET-0d0c279fcba8</title></polyline>
<polyline points="460.0,180.0 603.0,180.0 603.0,188.0 628.0,188.0" fill="none" stroke="#000000" stroke-width="1" marker-start="url(#arrow)" marker-end="url(#arrow)"><title>electrical: NET-59321d691cbc</title></polyline>
<polyline points="1978.0,190.4 2014.0,190.4 2014.0,272.0 1996.0,272.0" fill="none" stroke="#000000" stroke-width="1" marker-start="url(#arrow)" marker-end="url(#arrow)"><title>electrical: NET-58106926ae95</title></polyline>
<polyline points="1978.0,207.2 2021.0,207.2 2021.0,292.0 1996.0,292.0" fill="none" stroke="#000000" stroke-width="1" marker-start="url(#arrow)" marker-end="url(#arrow)"><title>electrical: NET-888d56cd279a</title></polyline>
<polyline points="2164.0,188.0 2118.0,188.0 2118.0,156.8 1978.0,156.8" fill="none" stroke="#000000" stroke-width="1" marker-start="url(#arrow)" marker-end="url(#arrow)"><title>electrical: NET-7ba8574839c9</title></polyline>
<polyline points="2164.0,200.0 2111.0,200.0 2111.0,173.6 1978.0,173.6" fill="none" stroke="#000000" stroke-width="1" marker-start="url(#arrow)" marker-end="url(#arrow)"><title>electrical: NET-ff7cea02f9fb</title></polyline>
<polyline points="1360.0,260.0 1800.0,260.0 1800.0,168.0 1846.0,168.0" fill="none" stroke="#000000" stroke-width="1" marker-start="url(#arrow)" marker-end="url(#arrow)"><title>electrical: NET-65e5a48f19c8</title></polyline>
<polyline points="1360.0,280.0 1793.0,280.0 1793.0,196.0 1846.0,196.0" fill="none" stroke="#000000" stroke-width="1" marker-start="url(#arrow)" marker-end="url(#arrow)"><title>electrical: NET-ee479f5e7ac3</title></polyline>
<polyline points="1060.0,193.6 1182.0,193.6 1182.0,172.0 1228.0,172.0" fill="none" stroke="#000000" stroke-width="1" marker-start="url(#arrow)" marker-end="url(#arrow)"><title>electrical: NET-01b7014be933</title></polyline>
<polyline points="1060.0,215.2 1175.0,215.2 1175.0,192.0 1228.0,192.0" fill="none" stroke="#000000" stroke-width="1" marker-start="url(#arrow)" marker-end="url(#arrow)"><title>electrical: NET-80ce03b06ade</title></polyline>
<polyline points="1060.0,236.8 1168.0,236.8 1168.0,260.0 1228.0,260.0" fill="none" stroke="#000000" stroke-width="1" marker-start="url(#arrow)" marker-end="url(#arrow)"><title>electrical: NET-c0b547af3300</title></polyline>
<polyline points="1060.0,258.4 1161.0,258.4 1161.0,280.0 1228.0,280.0" fill="none" stroke="#000000" stroke-width="1" marker-start="url(#arrow)" marker-end="url(#arrow)"><title>electrical: NET-f053e5541496</title></polyline>
<polyline points="760.0,131.4 910.0,131.4 910.0,88.0 928.0,88.0" fill="none" stroke="#000000" stroke-width="1" marker-start="url(#arrow)" marker-end="url(#arrow)"><title>electrical: NET-4519b17f8f99</title></polyline>
<polyline points="760.0,146.9 903.0,146.9 903.0,116.0 928.0,116.0" fill="none" stroke="#000000" stroke-width="1" marker-start="url(#arrow)" marker-end="url(#arrow)"><title>electrical: NET-542450c0631a</title></polyline>
<polyline points="760.0,162.3 896.0,162.3 896.0,193.6 928.0,193.6" fill="none" stroke="#000000" stroke-width="1" marker-start="url(#arrow)" marker-end="url(#arrow)"><title>electrical: NET-53011e0d8d25</title></polyline>
<polyline points="760.0,177.7 889.0,177.7 889.0,215.2 928.0,215.2" fill="none" stroke="#000000" stroke-width="1" marker-start="url(#arrow)" marker-end="url(#arrow)"><title>electrical: NET-a060544611fc</title></polyline>
<polyline points="760.0,193.1 882.0,193.1 882.0,236.8 928.0,236.8" fill="none" stroke="#000000" stroke-width="1" marker-start="url(#arrow)" marker-end="url(#arrow)"><title>electrical: NET-b178a16233db</title></polyline>
<polyline points="760.0,208.6 875.0,208.6 875.0,258.4 928.0,258.4" fill="none" stroke="#000000" stroke-width="1" marker-start="url(#arrow)" marker-end="url(#arrow)"><title>electrical: NET-db67c5b75ca7</title></polyline>
<g><rect x="28" y="376" width="152" height="60" fill="none" stroke="#000000" stroke-width="1.2"/><text x="104" y="405.0" text-anchor="middle" font-size="12" font-weight="bold" fill="#000000">NONINVERTINGAMP</text><text x="104" y="418.0" text-anchor="middle" font-size="9" fill="#000000">(BLOCK)</text><title>BLK-42978eb8675a</title></g>
<g><rect x="1528" y="128" width="132" height="84" fill="none" stroke="#000000" stroke-width="1.2" stroke-dasharray="5 3"/><text x="1594" y="169.0" text-anchor="middle" font-size="12" font-weight="bold" fill="#000000">R_BIAS_LOWER</text><text x="1594" y="182.0" text-anchor="middle" font-size="9" fill="#000000">(RESISTOR)</text><title>CMP-09cfbd604e38, unknown: power_rating, tolerance_pct</title></g>
<g><rect x="928" y="60" width="132" height="84" fill="none" stroke="#000000" stroke-width="1.2" stroke-dasharray="5 3"/><text x="994" y="101.0" text-anchor="middle" font-size="12" font-weight="bold" fill="#000000">R_BIAS_UPPER</text><text x="994" y="114.0" text-anchor="middle" font-size="9" fill="#000000">(RESISTOR)</text><title>CMP-1886ca15d13a, unknown: power_rating, tolerance_pct</title></g>
<g><rect x="1228" y="40" width="132" height="84" fill="none" stroke="#000000" stroke-width="1.2" stroke-dasharray="5 3"/><text x="1294" y="81.0" text-anchor="middle" font-size="12" font-weight="bold" fill="#000000">R_SERIES</text><text x="1294" y="94.0" text-anchor="middle" font-size="9" fill="#000000">(RESISTOR)</text><title>CMP-1974a36a0bec, unknown: power_rating, tolerance_pct</title></g>
<g><rect x="28" y="140" width="132" height="60" fill="none" stroke="#000000" stroke-width="1.2"/><text x="94" y="169.0" text-anchor="middle" font-size="12" font-weight="bold" fill="#000000">SOURCE</text><text x="94" y="182.0" text-anchor="middle" font-size="9" fill="#000000">(TESTPOINT)</text><title>CMP-3219377790fa</title></g>
<g><rect x="1228" y="152" width="132" height="60" fill="none" stroke="#000000" stroke-width="1.2" stroke-dasharray="5 3"/><text x="1294" y="181.0" text-anchor="middle" font-size="12" font-weight="bold" fill="#000000">R_GAIN</text><text x="1294" y="194.0" text-anchor="middle" font-size="9" fill="#000000">(RESISTOR)</text><title>CMP-4b1aad7cd2b4, unknown: power_rating, tolerance_pct</title></g>
<g><rect x="1846" y="28" width="132" height="84" fill="none" stroke="#000000" stroke-width="1.2" stroke-dasharray="5 3"/><text x="1912" y="69.0" text-anchor="middle" font-size="12" font-weight="bold" fill="#000000">C_BIAS</text><text x="1912" y="82.0" text-anchor="middle" font-size="9" fill="#000000">(CAPACITOR)</text><title>CMP-65ee0edcbc2a, unknown: tolerance_pct, voltage_rating</title></g>
<g><rect x="328" y="140" width="132" height="60" fill="none" stroke="#000000" stroke-width="1.2" stroke-dasharray="5 3"/><text x="394" y="169.0" text-anchor="middle" font-size="12" font-weight="bold" fill="#000000">C_IN</text><text x="394" y="182.0" text-anchor="middle" font-size="9" fill="#000000">(CAPACITOR)</text><title>CMP-80ddc77eef74, unknown: tolerance_pct, voltage_rating</title></g>
<g><rect x="1846" y="140" width="132" height="84" fill="none" stroke="#000000" stroke-width="1.2" stroke-dasharray="5 3"/><text x="1912" y="181.0" text-anchor="middle" font-size="12" font-weight="bold" fill="#000000">R_LOAD</text><text x="1912" y="194.0" text-anchor="middle" font-size="9" fill="#000000">(RESISTOR)</text><title>CMP-8cf6153ec1bd, unknown: power_rating, tolerance_pct</title></g>
<g><rect x="2164" y="128" width="132" height="84" fill="none" stroke="#000000" stroke-width="1.2" stroke-dasharray="5 3"/><text x="2230" y="169.0" text-anchor="middle" font-size="12" font-weight="bold" fill="#000000">C_GAIN</text><text x="2230" y="182.0" text-anchor="middle" font-size="9" fill="#000000">(CAPACITOR)</text><title>CMP-9efa396e94ee, unknown: tolerance_pct, voltage_rating</title></g>
<g><rect x="1228" y="240" width="132" height="60" fill="none" stroke="#000000" stroke-width="1.2" stroke-dasharray="5 3"/><text x="1294" y="269.0" text-anchor="middle" font-size="12" font-weight="bold" fill="#000000">C_OUT</text><text x="1294" y="282.0" text-anchor="middle" font-size="9" fill="#000000">(CAPACITOR)</text><title>CMP-d0f40f6fc9a3, unknown: tolerance_pct, voltage_rating</title></g>
<g><rect x="928" y="172" width="132" height="108" fill="none" stroke="#000000" stroke-width="1.2" stroke-dasharray="5 3"/><text x="994" y="225.0" text-anchor="middle" font-size="12" font-weight="bold" fill="#000000">R_FEEDBACK</text><text x="994" y="238.0" text-anchor="middle" font-size="9" fill="#000000">(RESISTOR)</text><title>CMP-d344d52555c1, unknown: power_rating, tolerance_pct</title></g>
<g><rect x="628" y="116" width="132" height="108" fill="none" stroke="#000000" stroke-width="1.2"/><text x="694" y="169.0" text-anchor="middle" font-size="12" font-weight="bold" fill="#000000">AMP</text><text x="694" y="182.0" text-anchor="middle" font-size="9" fill="#000000">(OPAMP)</text><title>CMP-ed601b553153</title></g>
<g><rect x="1828" y="252" width="168" height="60" fill="none" stroke="#000000" stroke-width="1.2"/><text x="1912" y="281.0" text-anchor="middle" font-size="12" font-weight="bold" fill="#000000">REFERENCE</text><text x="1912" y="294.0" text-anchor="middle" font-size="9" fill="#000000">(GROUNDREFERENCE)</text><title>CMP-fe129c51b056</title></g>
<text x="465.0" y="157.5" text-anchor="start" font-size="8" fill="#000000">IN_PLUS</text>
<text x="465.0" y="177.5" text-anchor="start" font-size="8" fill="#000000">NON_INVERTING</text>
<text x="765.0" y="128.9" text-anchor="start" font-size="8" fill="#000000">NON_INVERTING</text>
<text x="765.0" y="144.4" text-anchor="start" font-size="8" fill="#000000">IN_PLUS</text>
<text x="765.0" y="159.8" text-anchor="start" font-size="8" fill="#000000">OUTPUT</text>
<text x="765.0" y="175.2" text-anchor="start" font-size="8" fill="#000000">INVERTING</text>
<text x="765.0" y="190.6" text-anchor="start" font-size="8" fill="#000000">IN_MINUS</text>
<text x="765.0" y="206.1" text-anchor="start" font-size="8" fill="#000000">OUT</text>
<line x1="28" y1="464" x2="54" y2="464" stroke="#000000" stroke-width="1"/>
<text x="60" y="467.5" font-size="9.5" fill="#000000">ELECTRICAL</text>
<text x="28" y="494" font-size="9.5" fill="#000000">10 node(s) carry unknown parameters; a dashed border marks them</text>
<text x="1162.0" y="524" text-anchor="middle" font-size="13" font-weight="bold" letter-spacing="0.08em" fill="#000000">INTERCONNECT</text>
<text x="1162.0" y="540" text-anchor="middle" font-size="10" font-style="italic" fill="#000000">What is connected to what?</text>
</svg>
