<svg xmlns="http://www.w3.org/2000/svg" width="1692" height="504" viewBox="0 0 1692 504" font-family="system-ui, sans-serif">
<title>interconnect: What is connected to what?</title>
<rect width="1692" height="504" fill="#ffffff"/>
<text x="28" y="26" font-size="15" font-weight="600" fill="#1b1b1f">interconnect</text>
<text x="28" y="43" font-size="11.5" fill="#5f6368">What is connected to what?</text>
<line x1="28" y1="328" x2="1664" y2="328" stroke="#c4c7cc" stroke-width="1" stroke-dasharray="3 4"/>
<text x="28" y="320" font-size="11" fill="#5f6368">nothing in this view connects to these</text>
<path d="M1406.0,124.5 C1462.7,124.5 1475.3,124.5 1532.0,124.5" fill="none" stroke="#5f6368" stroke-width="1.5" stroke-linecap="round" opacity="0.85"><title>electrical: NET-65e5a48f19c8</title></path>
<path d="M1406.0,131.5 C1462.7,131.5 1475.3,131.5 1532.0,131.5" fill="none" stroke="#5f6368" stroke-width="1.5" stroke-linecap="round" opacity="0.85"><title>electrical: NET-ee479f5e7ac3</title></path>
<path d="M1274.0,117.5 C1207.4,117.5 1192.6,73.5 1126.0,73.5" fill="none" stroke="#5f6368" stroke-width="1.5" stroke-linecap="round" opacity="0.85"><title>electrical: NET-53011e0d8d25</title></path>
<path d="M1274.0,124.5 C1207.4,124.5 1192.6,80.5 1126.0,80.5" fill="none" stroke="#5f6368" stroke-width="1.5" stroke-linecap="round" opacity="0.85"><title>electrical: NET-db67c5b75ca7</title></path>
<path d="M1274.0,124.5 C1217.3,124.5 1204.7,256.5 1148.0,256.5" fill="none" stroke="#5f6368" stroke-width="1.5" stroke-linecap="round" opacity="0.85"><title>electrical: NET-0ca3378aee6b</title></path>
<path d="M1274.0,131.5 C1217.3,131.5 1204.7,263.5 1148.0,263.5" fill="none" stroke="#5f6368" stroke-width="1.5" stroke-linecap="round" opacity="0.85"><title>electrical: NET-2a8ba4ef04ef</title></path>
<path d="M160.0,168.5 C206.8,168.5 217.2,168.5 264.0,168.5" fill="none" stroke="#5f6368" stroke-width="1.5" stroke-linecap="round" opacity="0.85"><title>electrical: NET-601435c64e5a</title></path>
<path d="M160.0,175.5 C206.8,175.5 217.2,175.5 264.0,175.5" fill="none" stroke="#5f6368" stroke-width="1.5" stroke-linecap="round" opacity="0.85"><title>electrical: NET-dd1fe7b3f522</title></path>
<path d="M396.0,168.5 C665.1,168.5 724.9,168.5 994.0,168.5" fill="none" stroke="#5f6368" stroke-width="1.5" stroke-linecap="round" opacity="0.85"><title>electrical: NET-0d0c279fcba8</title></path>
<path d="M396.0,175.5 C665.1,175.5 724.9,175.5 994.0,175.5" fill="none" stroke="#5f6368" stroke-width="1.5" stroke-linecap="round" opacity="0.85"><title>electrical: NET-59321d691cbc</title></path>
<path d="M632.0,117.5 C794.9,117.5 831.1,161.5 994.0,161.5" fill="none" stroke="#5f6368" stroke-width="1.5" stroke-linecap="round" opacity="0.85"><title>electrical: NET-4411ae54eb05</title></path>
<path d="M632.0,124.5 C794.9,124.5 831.1,168.5 994.0,168.5" fill="none" stroke="#5f6368" stroke-width="1.5" stroke-linecap="round" opacity="0.85"><title>electrical: NET-ed0c09a43ef3</title></path>
<path d="M632.0,124.5 C678.8,124.5 689.2,168.5 736.0,168.5" fill="none" stroke="#5f6368" stroke-width="1.5" stroke-linecap="round" opacity="0.85"><title>electrical: NET-58788eea8844</title></path>
<path d="M632.0,131.5 C678.8,131.5 689.2,175.5 736.0,175.5" fill="none" stroke="#5f6368" stroke-width="1.5" stroke-linecap="round" opacity="0.85"><title>electrical: NET-b6046db85658</title></path>
<path d="M632.0,124.5 C1037.0,124.5 1127.0,212.5 1532.0,212.5" fill="none" stroke="#5f6368" stroke-width="1.5" stroke-linecap="round" opacity="0.85"><title>electrical: NET-4d1ca10e619c</title></path>
<path d="M632.0,131.5 C1037.0,131.5 1127.0,219.5 1532.0,219.5" fill="none" stroke="#5f6368" stroke-width="1.5" stroke-linecap="round" opacity="0.85"><title>electrical: NET-4f78a784eb7e</title></path>
<path d="M1126.0,87.5 C1192.6,87.5 1207.4,131.5 1274.0,131.5" fill="none" stroke="#5f6368" stroke-width="1.5" stroke-linecap="round" opacity="0.85"><title>electrical: NET-c0b547af3300</title></path>
<path d="M1126.0,94.5 C1192.6,94.5 1207.4,138.5 1274.0,138.5" fill="none" stroke="#5f6368" stroke-width="1.5" stroke-linecap="round" opacity="0.85"><title>electrical: NET-f053e5541496</title></path>
<path d="M1428.0,212.5 C1474.8,212.5 1485.2,124.5 1532.0,124.5" fill="none" stroke="#5f6368" stroke-width="1.5" stroke-linecap="round" opacity="0.85"><title>electrical: NET-58106926ae95</title></path>
<path d="M1428.0,219.5 C1474.8,219.5 1485.2,131.5 1532.0,131.5" fill="none" stroke="#5f6368" stroke-width="1.5" stroke-linecap="round" opacity="0.85"><title>electrical: NET-888d56cd279a</title></path>
<path d="M1428.0,212.5 C1474.8,212.5 1485.2,212.5 1532.0,212.5" fill="none" stroke="#5f6368" stroke-width="1.5" stroke-linecap="round" opacity="0.85"><title>electrical: NET-7ba8574839c9</title></path>
<path d="M1428.0,219.5 C1474.8,219.5 1485.2,219.5 1532.0,219.5" fill="none" stroke="#5f6368" stroke-width="1.5" stroke-linecap="round" opacity="0.85"><title>electrical: NET-ff7cea02f9fb</title></path>
<path d="M1126.0,168.5 C1308.7,168.5 1349.3,124.5 1532.0,124.5" fill="none" stroke="#5f6368" stroke-width="1.5" stroke-linecap="round" opacity="0.85"><title>electrical: NET-a060544611fc</title></path>
<path d="M1126.0,175.5 C1308.7,175.5 1349.3,131.5 1532.0,131.5" fill="none" stroke="#5f6368" stroke-width="1.5" stroke-linecap="round" opacity="0.85"><title>electrical: NET-b178a16233db</title></path>
<path d="M994.0,175.5 C831.1,175.5 794.9,131.5 632.0,131.5" fill="none" stroke="#5f6368" stroke-width="1.5" stroke-linecap="round" opacity="0.85"><title>electrical: NET-4519b17f8f99</title></path>
<path d="M994.0,182.5 C831.1,182.5 794.9,138.5 632.0,138.5" fill="none" stroke="#5f6368" stroke-width="1.5" stroke-linecap="round" opacity="0.85"><title>electrical: NET-542450c0631a</title></path>
<path d="M994.0,168.5 C831.1,168.5 794.9,212.5 632.0,212.5" fill="none" stroke="#5f6368" stroke-width="1.5" stroke-linecap="round" opacity="0.85"><title>electrical: NET-01b7014be933</title></path>
<path d="M994.0,175.5 C831.1,175.5 794.9,219.5 632.0,219.5" fill="none" stroke="#5f6368" stroke-width="1.5" stroke-linecap="round" opacity="0.85"><title>electrical: NET-80ce03b06ade</title></path>
<path d="M632.0,212.5 C920.9,212.5 985.1,124.5 1274.0,124.5" fill="none" stroke="#5f6368" stroke-width="1.5" stroke-linecap="round" opacity="0.85"><title>electrical: NET-b2b52c031d2a</title></path>
<path d="M632.0,219.5 C920.9,219.5 985.1,131.5 1274.0,131.5" fill="none" stroke="#5f6368" stroke-width="1.5" stroke-linecap="round" opacity="0.85"><title>electrical: NET-b3df9522a1aa</title></path>
<path d="M1148.0,256.5 C1194.8,256.5 1205.2,212.5 1252.0,212.5" fill="none" stroke="#5f6368" stroke-width="1.5" stroke-linecap="round" opacity="0.85"><title>electrical: NET-c42280bad0a5</title></path>
<path d="M1148.0,263.5 C1194.8,263.5 1205.2,219.5 1252.0,219.5" fill="none" stroke="#5f6368" stroke-width="1.5" stroke-linecap="round" opacity="0.85"><title>electrical: NET-e3bff07e49e2</title></path>
<path d="M868.0,168.5 C924.7,168.5 937.3,168.5 994.0,168.5" fill="none" stroke="#5f6368" stroke-width="1.5" stroke-linecap="round" opacity="0.85"><title>electrical: NET-76e0d034f372</title></path>
<path d="M868.0,175.5 C924.7,175.5 937.3,175.5 994.0,175.5" fill="none" stroke="#5f6368" stroke-width="1.5" stroke-linecap="round" opacity="0.85"><title>electrical: NET-e79ddc2abd42</title></path>
<g><rect x="28" y="354" width="184" height="60" rx="8" fill="#f1f3f4" stroke="#c4c7cc" stroke-width="1"/><text x="120" y="380" text-anchor="middle" font-size="13" font-weight="500" fill="#1b1b1f">LinearCurrentSource</text><text x="120" y="397" text-anchor="middle" font-size="10.5" fill="#5f6368">block</text><title>BLK-42978eb8675a</title></g>
<g><rect x="1274" y="98" width="132" height="60" rx="8" fill="#ffffff" stroke="#c4c7cc" stroke-width="1"/><text x="1340" y="124" text-anchor="middle" font-size="13" font-weight="500" fill="#1b1b1f">second</text><text x="1340" y="141" text-anchor="middle" font-size="10.5" fill="#5f6368">OpAmp</text><title>CMP-03a95288149a</title></g>
<g><rect x="28" y="142" width="132" height="60" rx="8" fill="#ffffff" stroke="#c4c7cc" stroke-width="1"/><text x="94" y="168" text-anchor="middle" font-size="13" font-weight="500" fill="#1b1b1f">e_in</text><text x="94" y="185" text-anchor="middle" font-size="10.5" fill="#5f6368">Terminal</text><title>CMP-103230d81393</title></g>
<g><rect x="1532" y="98" width="132" height="60" rx="8" fill="#ffffff" stroke="#c4c7cc" stroke-width="1"/><text x="1598" y="124" text-anchor="middle" font-size="13" font-weight="500" fill="#1b1b1f">ground</text><text x="1598" y="141" text-anchor="middle" font-size="10.5" fill="#5f6368">Ground</text><title>CMP-2a934da363ec</title></g>
<g><rect x="264" y="142" width="132" height="60" rx="8" fill="#ffffff" stroke="#b3261e" stroke-dasharray="4 3" stroke-width="1"/><text x="330" y="168" text-anchor="middle" font-size="13" font-weight="500" fill="#1b1b1f">r1</text><text x="330" y="185" text-anchor="middle" font-size="10.5" fill="#5f6368">Resistor</text><title>CMP-390a79be1fe2, unknown: power_rating, tolerance_pct</title></g>
<g><rect x="500" y="98" width="132" height="60" rx="8" fill="#ffffff" stroke="#b3261e" stroke-dasharray="4 3" stroke-width="1"/><text x="566" y="124" text-anchor="middle" font-size="13" font-weight="500" fill="#1b1b1f">r0_first</text><text x="566" y="141" text-anchor="middle" font-size="10.5" fill="#5f6368">Resistor</text><title>CMP-78f7596077e6, unknown: power_rating, tolerance_pct</title></g>
<g><rect x="994" y="54" width="132" height="60" rx="8" fill="#ffffff" stroke="#b3261e" stroke-dasharray="4 3" stroke-width="1"/><text x="1060" y="80" text-anchor="middle" font-size="13" font-weight="500" fill="#1b1b1f">r2_second</text><text x="1060" y="97" text-anchor="middle" font-size="10.5" fill="#5f6368">Resistor</text><title>CMP-7cee434794ac, unknown: power_rating, tolerance_pct</title></g>
<g><rect x="1252" y="186" width="176" height="60" rx="8" fill="#ffffff" stroke="#c4c7cc" stroke-width="1"/><text x="1340" y="212" text-anchor="middle" font-size="13" font-weight="500" fill="#1b1b1f">r_load</text><text x="1340" y="229" text-anchor="middle" font-size="10.5" fill="#5f6368">SettableResistor</text><title>CMP-8cf6153ec1bd</title></g>
<g><rect x="994" y="142" width="132" height="60" rx="8" fill="#ffffff" stroke="#c4c7cc" stroke-width="1"/><text x="1060" y="168" text-anchor="middle" font-size="13" font-weight="500" fill="#1b1b1f">first</text><text x="1060" y="185" text-anchor="middle" font-size="10.5" fill="#5f6368">OpAmp</text><title>CMP-8fd1ca3e6d63</title></g>
<g><rect x="500" y="186" width="132" height="60" rx="8" fill="#ffffff" stroke="#b3261e" stroke-dasharray="4 3" stroke-width="1"/><text x="566" y="212" text-anchor="middle" font-size="13" font-weight="500" fill="#1b1b1f">r0_second</text><text x="566" y="229" text-anchor="middle" font-size="10.5" fill="#5f6368">Resistor</text><title>CMP-96f6eacb87cb, unknown: power_rating, tolerance_pct</title></g>
<g><rect x="972" y="230" width="176" height="60" rx="8" fill="#ffffff" stroke="#c4c7cc" stroke-width="1"/><text x="1060" y="256" text-anchor="middle" font-size="13" font-weight="500" fill="#1b1b1f">r3</text><text x="1060" y="273" text-anchor="middle" font-size="10.5" fill="#5f6368">SettableResistor</text><title>CMP-99ef3f8b2557</title></g>
<g><rect x="736" y="142" width="132" height="60" rx="8" fill="#ffffff" stroke="#b3261e" stroke-dasharray="4 3" stroke-width="1"/><text x="802" y="168" text-anchor="middle" font-size="13" font-weight="500" fill="#1b1b1f">c_o</text><text x="802" y="185" text-anchor="middle" font-size="10.5" fill="#5f6368">Capacitor</text><title>CMP-cffe260ed560, unknown: tolerance_pct, voltage_rating</title></g>
<g><rect x="1532" y="186" width="132" height="60" rx="8" fill="#ffffff" stroke="#b3261e" stroke-dasharray="4 3" stroke-width="1"/><text x="1598" y="212" text-anchor="middle" font-size="13" font-weight="500" fill="#1b1b1f">r2_upper</text><text x="1598" y="229" text-anchor="middle" font-size="10.5" fill="#5f6368">Resistor</text><title>CMP-ecdfc2969cee, unknown: power_rating, tolerance_pct</title></g>
<line x1="28" y1="442" x2="48" y2="442" stroke="#5f6368" stroke-width="1.5" stroke-linecap="round"/>
<text x="54" y="446" font-size="11" fill="#5f6368">electrical</text>
<text x="28" y="470" font-size="11" fill="#b3261e">6 node(s) carry unknown parameters; a dashed border marks them</text>
</svg>
