<svg xmlns="http://www.w3.org/2000/svg" width="1597" height="1208" viewBox="0 0 1597 1208" font-family="system-ui, sans-serif">
<title>safety: Which requirements and hard constraints govern this design?</title>
<rect width="1597" height="1208" fill="#ffffff"/>
<text x="28" y="26" font-size="15" font-weight="600" fill="#1b1b1f">safety</text>
<text x="28" y="43" font-size="11.5" fill="#5f6368">Which requirements and hard constraints govern this design?</text>
<line x1="28" y1="1032" x2="1569" y2="1032" stroke="#c4c7cc" stroke-width="1" stroke-dasharray="3 4"/>
<text x="28" y="1024" font-size="11" fill="#5f6368">nothing in this view connects to these</text>
<path d="M160.0,524.0 C206.8,524.0 217.2,524.0 264.0,524.0" fill="none" stroke="#b3261e" stroke-width="2" stroke-linecap="round" opacity="0.85"><title>power: NET-dd1fe7b3f522</title></path>
<path d="M400.0,513.5 C446.8,513.5 457.2,469.5 504.0,469.5" fill="none" stroke="#b3261e" stroke-width="2" stroke-linecap="round" opacity="0.85"><title>power: NET-0b86e7bfc978</title></path>
<path d="M400.0,520.5 C446.8,520.5 457.2,476.5 504.0,476.5" fill="none" stroke="#1b1b1f" stroke-width="2" stroke-linecap="round" opacity="0.85"><title>ground: NET-a7c6afa24f28</title></path>
<path d="M400.0,527.5 C446.8,527.5 457.2,483.5 504.0,483.5" fill="none" stroke="#b3261e" stroke-width="2" stroke-linecap="round" opacity="0.85"><title>power: NET-c6036c4b350a</title></path>
<path d="M400.0,534.5 C446.8,534.5 457.2,490.5 504.0,490.5" fill="none" stroke="#1b1b1f" stroke-width="2" stroke-linecap="round" opacity="0.85"><title>ground: NET-e1e12317409e</title></path>
<path d="M400.0,520.5 C778.0,520.5 862.0,872.5 1240.0,872.5" fill="none" stroke="#1b1b1f" stroke-width="2" stroke-linecap="round" opacity="0.85"><title>ground: NET-15bf05edf960</title></path>
<path d="M400.0,527.5 C778.0,527.5 862.0,879.5 1240.0,879.5" fill="none" stroke="#1b1b1f" stroke-width="2" stroke-linecap="round" opacity="0.85"><title>ground: NET-6ccf32b9fe2e</title></path>
<path d="M400.0,520.5 C661.0,520.5 719.0,212.5 980.0,212.5" fill="none" stroke="#b3261e" stroke-width="2" stroke-linecap="round" opacity="0.85"><title>power: NET-5df90129db60</title></path>
<path d="M400.0,527.5 C661.0,527.5 719.0,219.5 980.0,219.5" fill="none" stroke="#b3261e" stroke-width="2" stroke-linecap="round" opacity="0.85"><title>power: NET-ca208317d70f</title></path>
<path d="M400.0,517.0 C446.8,517.0 457.2,561.0 504.0,561.0" fill="none" stroke="#b3261e" stroke-width="2" stroke-linecap="round" opacity="0.85"><title>power: NET-59321d691cbc</title></path>
<path d="M400.0,524.0 C446.8,524.0 457.2,568.0 504.0,568.0" fill="none" stroke="#b3261e" stroke-width="2" stroke-linecap="round" opacity="0.85"><title>power: NET-6602c9ac8517</title></path>
<path d="M400.0,531.0 C446.8,531.0 457.2,575.0 504.0,575.0" fill="none" stroke="#b3261e" stroke-width="2" stroke-linecap="round" opacity="0.85"><title>power: NET-97fc96ee83b8</title></path>
<path d="M400.0,520.5 C661.0,520.5 719.0,300.5 980.0,300.5" fill="none" stroke="#b3261e" stroke-width="2" stroke-linecap="round" opacity="0.85"><title>power: NET-5e294562f13a</title></path>
<path d="M400.0,527.5 C661.0,527.5 719.0,307.5 980.0,307.5" fill="none" stroke="#b3261e" stroke-width="2" stroke-linecap="round" opacity="0.85"><title>power: NET-b3df9522a1aa</title></path>
<path d="M400.0,520.5 C661.0,520.5 719.0,476.5 980.0,476.5" fill="none" stroke="#b3261e" stroke-width="2" stroke-linecap="round" opacity="0.85"><title>power: NET-abcbac798683</title></path>
<path d="M400.0,527.5 C661.0,527.5 719.0,483.5 980.0,483.5" fill="none" stroke="#b3261e" stroke-width="2" stroke-linecap="round" opacity="0.85"><title>power: NET-d2401508deb0</title></path>
<path d="M400.0,520.5 C778.0,520.5 862.0,696.5 1240.0,696.5" fill="none" stroke="#1b1b1f" stroke-width="2" stroke-linecap="round" opacity="0.85"><title>ground: NET-114667091227</title></path>
<path d="M400.0,527.5 C778.0,527.5 862.0,703.5 1240.0,703.5" fill="none" stroke="#1b1b1f" stroke-width="2" stroke-linecap="round" opacity="0.85"><title>ground: NET-53011e0d8d25</title></path>
<path d="M400.0,520.5 C659.2,520.5 716.8,828.5 976.0,828.5" fill="none" stroke="#1b1b1f" stroke-width="2" stroke-linecap="round" opacity="0.85"><title>ground: NET-a47256142cd6</title></path>
<path d="M400.0,527.5 C659.2,527.5 716.8,835.5 976.0,835.5" fill="none" stroke="#1b1b1f" stroke-width="2" stroke-linecap="round" opacity="0.85"><title>ground: NET-be8fc0722470</title></path>
<path d="M1392.0,253.0 C1490.0,253.0 1482.0,77.0 1384.0,77.0" fill="none" stroke="#1a73e8" stroke-width="1.5" stroke-linecap="round" opacity="0.85"><title>signal: NET-0b7eb3dea94b</title></path>
<path d="M1392.0,260.0 C1476.0,260.0 1468.0,84.0 1384.0,84.0" fill="none" stroke="#1a73e8" stroke-width="1.5" stroke-linecap="round" opacity="0.85"><title>signal: NET-a58c46c2b9b6</title></path>
<path d="M1392.0,267.0 C1490.0,267.0 1482.0,91.0 1384.0,91.0" fill="none" stroke="#1a73e8" stroke-width="1.5" stroke-linecap="round" opacity="0.85"><title>signal: NET-fb9928c037b9</title></path>
<path d="M1392.0,249.5 C1629.0,249.5 1615.0,953.5 1378.0,953.5" fill="none" stroke="#5f6368" stroke-width="1.5" stroke-linecap="round" opacity="0.85"><title>electrical: NET-12fba531d21c</title></path>
<path d="M1392.0,256.5 C1615.0,256.5 1601.0,960.5 1378.0,960.5" fill="none" stroke="#5f6368" stroke-width="1.5" stroke-linecap="round" opacity="0.85"><title>electrical: NET-7cfc7e342c68</title></path>
<path d="M1392.0,263.5 C1615.0,263.5 1601.0,967.5 1378.0,967.5" fill="none" stroke="#5f6368" stroke-width="1.5" stroke-linecap="round" opacity="0.85"><title>electrical: NET-9603a12f31e7</title></path>
<path d="M1392.0,270.5 C1629.0,270.5 1615.0,974.5 1378.0,974.5" fill="none" stroke="#5f6368" stroke-width="1.5" stroke-linecap="round" opacity="0.85"><title>electrical: NET-a1836ec97ca5</title></path>
<path d="M1240.0,872.5 C1183.3,872.5 1170.7,388.5 1114.0,388.5" fill="none" stroke="#5f6368" stroke-width="1.5" stroke-linecap="round" opacity="0.85"><title>electrical: NET-4018fcd5da48</title></path>
<path d="M1240.0,879.5 C1183.3,879.5 1170.7,395.5 1114.0,395.5" fill="none" stroke="#5f6368" stroke-width="1.5" stroke-linecap="round" opacity="0.85"><title>electrical: NET-e2c446fe38c6</title></path>
<path d="M1116.0,212.5 C1295.0,212.5 1293.0,740.5 1114.0,740.5" fill="none" stroke="#5f6368" stroke-width="1.5" stroke-linecap="round" opacity="0.85"><title>electrical: NET-1597e900f709</title></path>
<path d="M1116.0,219.5 C1295.0,219.5 1293.0,747.5 1114.0,747.5" fill="none" stroke="#5f6368" stroke-width="1.5" stroke-linecap="round" opacity="0.85"><title>electrical: NET-4d19ad0c6647</title></path>
<path d="M872.0,517.0 C1034.0,517.0 1070.0,253.0 1232.0,253.0" fill="none" stroke="#b3261e" stroke-width="2" stroke-linecap="round" opacity="0.85"><title>power: NET-0a8ad6a74631</title></path>
<path d="M872.0,524.0 C1034.0,524.0 1070.0,260.0 1232.0,260.0" fill="none" stroke="#b3261e" stroke-width="2" stroke-linecap="round" opacity="0.85"><title>power: NET-4d1ca10e619c</title></path>
<path d="M872.0,531.0 C1034.0,531.0 1070.0,267.0 1232.0,267.0" fill="none" stroke="#b3261e" stroke-width="2" stroke-linecap="round" opacity="0.85"><title>power: NET-5f99949bd7a1</title></path>
<path d="M872.0,517.0 C921.5,517.0 932.5,385.0 982.0,385.0" fill="none" stroke="#b3261e" stroke-width="2" stroke-linecap="round" opacity="0.85"><title>power: NET-58788eea8844</title></path>
<path d="M872.0,524.0 C921.5,524.0 932.5,392.0 982.0,392.0" fill="none" stroke="#b3261e" stroke-width="2" stroke-linecap="round" opacity="0.85"><title>power: NET-69ca8abb1ec7</title></path>
<path d="M872.0,531.0 C921.5,531.0 932.5,399.0 982.0,399.0" fill="none" stroke="#b3261e" stroke-width="2" stroke-linecap="round" opacity="0.85"><title>power: NET-eed55cf677d3</title></path>
<path d="M1114.0,652.5 C1167.1,652.5 1178.9,784.5 1232.0,784.5" fill="none" stroke="#5f6368" stroke-width="1.5" stroke-linecap="round" opacity="0.85"><title>electrical: NET-ddc29d0b481e</title></path>
<path d="M1114.0,659.5 C1167.1,659.5 1178.9,791.5 1232.0,791.5" fill="none" stroke="#5f6368" stroke-width="1.5" stroke-linecap="round" opacity="0.85"><title>electrical: NET-f85587394dfa</title></path>
<path d="M1114.0,652.5 C1205.0,652.5 1211.0,828.5 1120.0,828.5" fill="none" stroke="#5f6368" stroke-width="1.5" stroke-linecap="round" opacity="0.85"><title>electrical: NET-0a8a7dd9efe0</title></path>
<path d="M1114.0,659.5 C1205.0,659.5 1211.0,835.5 1120.0,835.5" fill="none" stroke="#5f6368" stroke-width="1.5" stroke-linecap="round" opacity="0.85"><title>electrical: NET-83d3b5ce3c22</title></path>
<path d="M1246.0,344.5 C1186.6,344.5 1173.4,564.5 1114.0,564.5" fill="none" stroke="#1a73e8" stroke-width="1.5" stroke-linecap="round" opacity="0.85"><title>signal: NET-01b7014be933</title></path>
<path d="M1246.0,351.5 C1186.6,351.5 1173.4,571.5 1114.0,571.5" fill="none" stroke="#1a73e8" stroke-width="1.5" stroke-linecap="round" opacity="0.85"><title>signal: NET-80ce03b06ade</title></path>
<path d="M1246.0,344.5 C1187.5,344.5 1174.5,300.5 1116.0,300.5" fill="none" stroke="#1a73e8" stroke-width="1.5" stroke-linecap="round" opacity="0.85"><title>signal: NET-a060544611fc</title></path>
<path d="M1246.0,351.5 C1187.5,351.5 1174.5,307.5 1116.0,307.5" fill="none" stroke="#1a73e8" stroke-width="1.5" stroke-linecap="round" opacity="0.85"><title>signal: NET-b178a16233db</title></path>
<path d="M636.0,561.0 C682.8,561.0 693.2,517.0 740.0,517.0" fill="none" stroke="#b3261e" stroke-width="2" stroke-linecap="round" opacity="0.85"><title>power: NET-44849e8e78fa</title></path>
<path d="M636.0,568.0 C682.8,568.0 693.2,524.0 740.0,524.0" fill="none" stroke="#b3261e" stroke-width="2" stroke-linecap="round" opacity="0.85"><title>power: NET-4519b17f8f99</title></path>
<path d="M636.0,575.0 C682.8,575.0 693.2,531.0 740.0,531.0" fill="none" stroke="#b3261e" stroke-width="2" stroke-linecap="round" opacity="0.85"><title>power: NET-6f5eaa673e33</title></path>
<path d="M636.0,561.0 C910.5,561.0 971.5,341.0 1246.0,341.0" fill="none" stroke="#b3261e" stroke-width="2" stroke-linecap="round" opacity="0.85"><title>power: NET-4411ae54eb05</title></path>
<path d="M636.0,568.0 C910.5,568.0 971.5,348.0 1246.0,348.0" fill="none" stroke="#b3261e" stroke-width="2" stroke-linecap="round" opacity="0.85"><title>power: NET-71b628a325a2</title></path>
<path d="M636.0,575.0 C910.5,575.0 971.5,355.0 1246.0,355.0" fill="none" stroke="#b3261e" stroke-width="2" stroke-linecap="round" opacity="0.85"><title>power: NET-d7030896fbaf</title></path>
<path d="M636.0,561.0 C910.5,561.0 971.5,517.0 1246.0,517.0" fill="none" stroke="#b3261e" stroke-width="2" stroke-linecap="round" opacity="0.85"><title>power: NET-dd09a9fdd982</title></path>
<path d="M636.0,568.0 C910.5,568.0 971.5,524.0 1246.0,524.0" fill="none" stroke="#b3261e" stroke-width="2" stroke-linecap="round" opacity="0.85"><title>power: NET-e7d7f6ebf770</title></path>
<path d="M636.0,575.0 C910.5,575.0 971.5,531.0 1246.0,531.0" fill="none" stroke="#b3261e" stroke-width="2" stroke-linecap="round" opacity="0.85"><title>power: NET-f00dc2041a6e</title></path>
<path d="M636.0,561.0 C910.5,561.0 971.5,605.0 1246.0,605.0" fill="none" stroke="#b3261e" stroke-width="2" stroke-linecap="round" opacity="0.85"><title>power: NET-2a8ba4ef04ef</title></path>
<path d="M636.0,568.0 C910.5,568.0 971.5,612.0 1246.0,612.0" fill="none" stroke="#b3261e" stroke-width="2" stroke-linecap="round" opacity="0.85"><title>power: NET-e232704813b9</title></path>
<path d="M636.0,575.0 C910.5,575.0 971.5,619.0 1246.0,619.0" fill="none" stroke="#b3261e" stroke-width="2" stroke-linecap="round" opacity="0.85"><title>power: NET-e79b42d5279c</title></path>
<path d="M1114.0,381.5 C1163.5,381.5 1174.5,161.5 1224.0,161.5" fill="none" stroke="#1a73e8" stroke-width="1.5" stroke-linecap="round" opacity="0.85"><title>signal: NET-178047664a6e</title></path>
<path d="M1114.0,388.5 C1163.5,388.5 1174.5,168.5 1224.0,168.5" fill="none" stroke="#1a73e8" stroke-width="1.5" stroke-linecap="round" opacity="0.85"><title>signal: NET-29c4bfbea366</title></path>
<path d="M1114.0,395.5 C1163.5,395.5 1174.5,175.5 1224.0,175.5" fill="none" stroke="#1a73e8" stroke-width="1.5" stroke-linecap="round" opacity="0.85"><title>signal: NET-9bffd64e11af</title></path>
<path d="M1114.0,402.5 C1163.5,402.5 1174.5,182.5 1224.0,182.5" fill="none" stroke="#1a73e8" stroke-width="1.5" stroke-linecap="round" opacity="0.85"><title>signal: NET-e614992a715c</title></path>
<path d="M1114.0,381.5 C1167.1,381.5 1178.9,249.5 1232.0,249.5" fill="none" stroke="#1a73e8" stroke-width="1.5" stroke-linecap="round" opacity="0.85"><title>signal: NET-296ddc21566c</title></path>
<path d="M1114.0,388.5 C1167.1,388.5 1178.9,256.5 1232.0,256.5" fill="none" stroke="#1a73e8" stroke-width="1.5" stroke-linecap="round" opacity="0.85"><title>signal: NET-77734c8048e0</title></path>
<path d="M1114.0,395.5 C1167.1,395.5 1178.9,263.5 1232.0,263.5" fill="none" stroke="#1a73e8" stroke-width="1.5" stroke-linecap="round" opacity="0.85"><title>signal: NET-a2b7ec884d8e</title></path>
<path d="M1114.0,402.5 C1167.1,402.5 1178.9,270.5 1232.0,270.5" fill="none" stroke="#1a73e8" stroke-width="1.5" stroke-linecap="round" opacity="0.85"><title>signal: NET-fe4af0d984bc</title></path>
<path d="M1114.0,388.5 C1173.4,388.5 1186.6,344.5 1246.0,344.5" fill="none" stroke="#1a73e8" stroke-width="1.5" stroke-linecap="round" opacity="0.85"><title>signal: NET-6d9365571295</title></path>
<path d="M1114.0,395.5 C1173.4,395.5 1186.6,351.5 1246.0,351.5" fill="none" stroke="#1a73e8" stroke-width="1.5" stroke-linecap="round" opacity="0.85"><title>signal: NET-76e0d034f372</title></path>
<path d="M1114.0,381.5 C1173.4,381.5 1186.6,425.5 1246.0,425.5" fill="none" stroke="#1b1b1f" stroke-width="2" stroke-linecap="round" opacity="0.85"><title>ground: NET-3fd4495236c3</title></path>
<path d="M1114.0,388.5 C1173.4,388.5 1186.6,432.5 1246.0,432.5" fill="none" stroke="#b3261e" stroke-width="2" stroke-linecap="round" opacity="0.85"><title>power: NET-841db416dc17</title></path>
<path d="M1114.0,395.5 C1173.4,395.5 1186.6,439.5 1246.0,439.5" fill="none" stroke="#b3261e" stroke-width="2" stroke-linecap="round" opacity="0.85"><title>power: NET-8e69082e23dd</title></path>
<path d="M1114.0,402.5 C1173.4,402.5 1186.6,446.5 1246.0,446.5" fill="none" stroke="#1b1b1f" stroke-width="2" stroke-linecap="round" opacity="0.85"><title>ground: NET-979aee9e506a</title></path>
<path d="M1114.0,388.5 C1173.4,388.5 1186.6,520.5 1246.0,520.5" fill="none" stroke="#1a73e8" stroke-width="1.5" stroke-linecap="round" opacity="0.85"><title>signal: NET-22f84d00e333</title></path>
<path d="M1114.0,395.5 C1173.4,395.5 1186.6,527.5 1246.0,527.5" fill="none" stroke="#1a73e8" stroke-width="1.5" stroke-linecap="round" opacity="0.85"><title>signal: NET-f9b8bd46f641</title></path>
<path d="M1114.0,388.5 C1173.4,388.5 1186.6,608.5 1246.0,608.5" fill="none" stroke="#1a73e8" stroke-width="1.5" stroke-linecap="round" opacity="0.85"><title>signal: NET-44f29744c94d</title></path>
<path d="M1114.0,395.5 C1173.4,395.5 1186.6,615.5 1246.0,615.5" fill="none" stroke="#1a73e8" stroke-width="1.5" stroke-linecap="round" opacity="0.85"><title>signal: NET-c42280bad0a5</title></path>
<path d="M1246.0,520.5 C1186.6,520.5 1173.4,652.5 1114.0,652.5" fill="none" stroke="#1a73e8" stroke-width="1.5" stroke-linecap="round" opacity="0.85"><title>signal: NET-1079025d7d6e</title></path>
<path d="M1246.0,527.5 C1186.6,527.5 1173.4,659.5 1114.0,659.5" fill="none" stroke="#1a73e8" stroke-width="1.5" stroke-linecap="round" opacity="0.85"><title>signal: NET-3ca620f92a16</title></path>
<path d="M1246.0,520.5 C1187.5,520.5 1174.5,476.5 1116.0,476.5" fill="none" stroke="#1a73e8" stroke-width="1.5" stroke-linecap="round" opacity="0.85"><title>signal: NET-2d056849cce6</title></path>
<path d="M1246.0,527.5 C1187.5,527.5 1174.5,483.5 1116.0,483.5" fill="none" stroke="#1a73e8" stroke-width="1.5" stroke-linecap="round" opacity="0.85"><title>signal: NET-4d199ce74a0b</title></path>
<path d="M1246.0,608.5 C1187.5,608.5 1174.5,212.5 1116.0,212.5" fill="none" stroke="#1a73e8" stroke-width="1.5" stroke-linecap="round" opacity="0.85"><title>signal: NET-7ba8574839c9</title></path>
<path d="M1246.0,615.5 C1187.5,615.5 1174.5,219.5 1116.0,219.5" fill="none" stroke="#1a73e8" stroke-width="1.5" stroke-linecap="round" opacity="0.85"><title>signal: NET-ff7cea02f9fb</title></path>
<path d="M1246.0,608.5 C1186.6,608.5 1173.4,740.5 1114.0,740.5" fill="none" stroke="#1a73e8" stroke-width="1.5" stroke-linecap="round" opacity="0.85"><title>signal: NET-58106926ae95</title></path>
<path d="M1246.0,615.5 C1186.6,615.5 1173.4,747.5 1114.0,747.5" fill="none" stroke="#1a73e8" stroke-width="1.5" stroke-linecap="round" opacity="0.85"><title>signal: NET-888d56cd279a</title></path>
<path d="M1114.0,564.5 C1167.1,564.5 1178.9,784.5 1232.0,784.5" fill="none" stroke="#5f6368" stroke-width="1.5" stroke-linecap="round" opacity="0.85"><title>electrical: NET-c0b547af3300</title></path>
<path d="M1114.0,571.5 C1167.1,571.5 1178.9,791.5 1232.0,791.5" fill="none" stroke="#5f6368" stroke-width="1.5" stroke-linecap="round" opacity="0.85"><title>electrical: NET-f053e5541496</title></path>
<path d="M1114.0,564.5 C1170.7,564.5 1183.3,696.5 1240.0,696.5" fill="none" stroke="#5f6368" stroke-width="1.5" stroke-linecap="round" opacity="0.85"><title>electrical: NET-504f4db496bc</title></path>
<path d="M1114.0,571.5 C1170.7,571.5 1183.3,703.5 1240.0,703.5" fill="none" stroke="#5f6368" stroke-width="1.5" stroke-linecap="round" opacity="0.85"><title>electrical: NET-689f6e49620b</title></path>
<path d="M1116.0,300.5 C1229.0,300.5 1227.0,564.5 1114.0,564.5" fill="none" stroke="#5f6368" stroke-width="1.5" stroke-linecap="round" opacity="0.85"><title>electrical: NET-8dc6a3b4a0f6</title></path>
<path d="M1116.0,307.5 C1229.0,307.5 1227.0,571.5 1114.0,571.5" fill="none" stroke="#5f6368" stroke-width="1.5" stroke-linecap="round" opacity="0.85"><title>electrical: NET-c1bb1df6b218</title></path>
<path d="M1114.0,740.5 C1170.7,740.5 1183.3,872.5 1240.0,872.5" fill="none" stroke="#5f6368" stroke-width="1.5" stroke-linecap="round" opacity="0.85"><title>electrical: NET-5ba76eba0556</title></path>
<path d="M1114.0,747.5 C1170.7,747.5 1183.3,879.5 1240.0,879.5" fill="none" stroke="#5f6368" stroke-width="1.5" stroke-linecap="round" opacity="0.85"><title>electrical: NET-df324a528476</title></path>
<path d="M1114.0,740.5 C1167.1,740.5 1178.9,784.5 1232.0,784.5" fill="none" stroke="#5f6368" stroke-width="1.5" stroke-linecap="round" opacity="0.85"><title>electrical: NET-bcff91878462</title></path>
<path d="M1114.0,747.5 C1167.1,747.5 1178.9,791.5 1232.0,791.5" fill="none" stroke="#5f6368" stroke-width="1.5" stroke-linecap="round" opacity="0.85"><title>electrical: NET-e440d18464c1</title></path>
<path d="M1116.0,476.5 C1207.0,476.5 1205.0,652.5 1114.0,652.5" fill="none" stroke="#5f6368" stroke-width="1.5" stroke-linecap="round" opacity="0.85"><title>electrical: NET-94bf213a4c40</title></path>
<path d="M1116.0,483.5 C1207.0,483.5 1205.0,659.5 1114.0,659.5" fill="none" stroke="#5f6368" stroke-width="1.5" stroke-linecap="round" opacity="0.85"><title>electrical: NET-a8fcb1892f8c</title></path>
<path d="M1240.0,696.5 C1183.3,696.5 1170.7,388.5 1114.0,388.5" fill="none" stroke="#5f6368" stroke-width="1.5" stroke-linecap="round" opacity="0.85"><title>electrical: NET-65e5a48f19c8</title></path>
<path d="M1240.0,703.5 C1183.3,703.5 1170.7,395.5 1114.0,395.5" fill="none" stroke="#5f6368" stroke-width="1.5" stroke-linecap="round" opacity="0.85"><title>electrical: NET-ee479f5e7ac3</title></path>
<path d="M1120.0,828.5 C1277.0,828.5 1271.0,388.5 1114.0,388.5" fill="none" stroke="#5f6368" stroke-width="1.5" stroke-linecap="round" opacity="0.85"><title>electrical: NET-6beaa8eb589a</title></path>
<path d="M1120.0,835.5 C1277.0,835.5 1271.0,395.5 1114.0,395.5" fill="none" stroke="#5f6368" stroke-width="1.5" stroke-linecap="round" opacity="0.85"><title>electrical: NET-9b0cdaf66f10</title></path>
<g><rect x="28" y="1058" width="132" height="60" rx="8" fill="#f1f3f4" stroke="#c4c7cc" stroke-width="1"/><text x="94" y="1084" text-anchor="middle" font-size="13" font-weight="500" fill="#1b1b1f">bridge_w</text><text x="94" y="1101" text-anchor="middle" font-size="10.5" fill="#5f6368">HalfBridge</text><title>BLK-23935f99ba80</title></g>
<g><rect x="28" y="494" width="132" height="60" rx="8" fill="#f1f3f4" stroke="#c4c7cc" stroke-width="1"/><text x="94" y="520" text-anchor="middle" font-size="13" font-weight="500" fill="#1b1b1f">ServoDrive</text><text x="94" y="537" text-anchor="middle" font-size="10.5" fill="#5f6368">block</text><title>BLK-42978eb8675a</title></g>
<g><rect x="192" y="1058" width="132" height="60" rx="8" fill="#f1f3f4" stroke="#c4c7cc" stroke-width="1"/><text x="258" y="1084" text-anchor="middle" font-size="13" font-weight="500" fill="#1b1b1f">bridge_v</text><text x="258" y="1101" text-anchor="middle" font-size="10.5" fill="#5f6368">HalfBridge</text><title>BLK-53ad2cf97cd1</title></g>
<g><rect x="356" y="1058" width="132" height="60" rx="8" fill="#f1f3f4" stroke="#c4c7cc" stroke-width="1"/><text x="422" y="1084" text-anchor="middle" font-size="13" font-weight="500" fill="#1b1b1f">bridge_u</text><text x="422" y="1101" text-anchor="middle" font-size="10.5" fill="#5f6368">HalfBridge</text><title>BLK-96f2c9f387d3</title></g>
<g><rect x="1240" y="54" width="144" height="60" rx="8" fill="#ffffff" stroke="#c4c7cc" stroke-width="1"/><text x="1312" y="80" text-anchor="middle" font-size="13" font-weight="500" fill="#1b1b1f">can_port</text><text x="1312" y="97" text-anchor="middle" font-size="10.5" fill="#5f6368">BusConnector</text><title>CMP-00a9a2de0f4a</title></g>
<g><rect x="264" y="494" width="136" height="60" rx="8" fill="#ffffff" stroke="#c4c7cc" stroke-width="1"/><text x="332" y="520" text-anchor="middle" font-size="13" font-weight="500" fill="#1b1b1f">bus_in</text><text x="332" y="537" text-anchor="middle" font-size="10.5" fill="#5f6368">BusTerminal</text><title>CMP-0851daf5b2f4</title></g>
<g><rect x="1224" y="142" width="176" height="60" rx="8" fill="#ffffff" stroke="#c4c7cc" stroke-width="1"/><text x="1312" y="168" text-anchor="middle" font-size="13" font-weight="500" fill="#1b1b1f">encoder_port</text><text x="1312" y="185" text-anchor="middle" font-size="10.5" fill="#5f6368">EncoderConnector</text><title>CMP-0c5dfc96fccc</title></g>
<g><rect x="504" y="450" width="132" height="60" rx="8" fill="#ffffff" stroke="#b3261e" stroke-dasharray="4 3" stroke-width="1"/><text x="570" y="476" text-anchor="middle" font-size="13" font-weight="500" fill="#1b1b1f">bus_bulk</text><text x="570" y="493" text-anchor="middle" font-size="10.5" fill="#5f6368">Capacitor</text><title>CMP-11ac53ca13dd — unknown: tolerance_pct</title></g>
<g><rect x="1232" y="230" width="160" height="60" rx="8" fill="#ffffff" stroke="#c4c7cc" stroke-width="1"/><text x="1312" y="256" text-anchor="middle" font-size="13" font-weight="500" fill="#1b1b1f">transceiver</text><text x="1312" y="273" text-anchor="middle" font-size="10.5" fill="#5f6368">CANTransceiver</text><title>CMP-25e013a8dcca</title></g>
<g><rect x="1240" y="846" width="144" height="60" rx="8" fill="#ffffff" stroke="#b3261e" stroke-dasharray="4 3" stroke-width="1"/><text x="1312" y="872" text-anchor="middle" font-size="13" font-weight="500" fill="#1b1b1f">bridge_v.shunt</text><text x="1312" y="889" text-anchor="middle" font-size="10.5" fill="#5f6368">Resistor</text><title>CMP-31b3b21e4d28 — unknown: tolerance_pct</title></g>
<g><rect x="980" y="186" width="136" height="60" rx="8" fill="#ffffff" stroke="#c4c7cc" stroke-width="1"/><text x="1048" y="212" text-anchor="middle" font-size="13" font-weight="500" fill="#1b1b1f">bridge_v.high</text><text x="1048" y="229" text-anchor="middle" font-size="10.5" fill="#5f6368">Transistor</text><title>CMP-3c38ea91f6a1</title></g>
<g><rect x="740" y="494" width="132" height="60" rx="8" fill="#ffffff" stroke="#b3261e" stroke-dasharray="4 3" stroke-width="1"/><text x="806" y="520" text-anchor="middle" font-size="13" font-weight="500" fill="#1b1b1f">logic_rail</text><text x="806" y="537" text-anchor="middle" font-size="10.5" fill="#5f6368">Regulator</text><title>CMP-47024f13a37b — unknown: dropout_voltage, quiescent_current</title></g>
<g><rect x="982" y="626" width="132" height="60" rx="8" fill="#ffffff" stroke="#c4c7cc" stroke-width="1"/><text x="1048" y="652" text-anchor="middle" font-size="13" font-weight="500" fill="#1b1b1f">bridge_w.low</text><text x="1048" y="669" text-anchor="middle" font-size="10.5" fill="#5f6368">Transistor</text><title>CMP-6018f9f6d648</title></g>
<g><rect x="1246" y="318" width="132" height="60" rx="8" fill="#ffffff" stroke="#c4c7cc" stroke-width="1"/><text x="1312" y="344" text-anchor="middle" font-size="13" font-weight="500" fill="#1b1b1f">driver_u</text><text x="1312" y="361" text-anchor="middle" font-size="10.5" fill="#5f6368">GateDriver</text><title>CMP-69e33152c7f1</title></g>
<g><rect x="1246" y="934" width="132" height="60" rx="8" fill="#ffffff" stroke="#b3261e" stroke-dasharray="4 3" stroke-width="1"/><text x="1312" y="960" text-anchor="middle" font-size="13" font-weight="500" fill="#1b1b1f">termination</text><text x="1312" y="977" text-anchor="middle" font-size="10.5" fill="#5f6368">Resistor</text><title>CMP-6c73be6e6dae — unknown: tolerance_pct</title></g>
<g><rect x="504" y="538" width="132" height="60" rx="8" fill="#ffffff" stroke="#b3261e" stroke-dasharray="4 3" stroke-width="1"/><text x="570" y="564" text-anchor="middle" font-size="13" font-weight="500" fill="#1b1b1f">gate_rail</text><text x="570" y="581" text-anchor="middle" font-size="10.5" fill="#5f6368">Regulator</text><title>CMP-74b42c070bc1 — unknown: dropout_voltage, quiescent_current</title></g>
<g><rect x="1246" y="406" width="132" height="60" rx="8" fill="#ffffff" stroke="#b3261e" stroke-dasharray="4 3" stroke-width="1"/><text x="1312" y="432" text-anchor="middle" font-size="13" font-weight="500" fill="#1b1b1f">logic_bypass</text><text x="1312" y="449" text-anchor="middle" font-size="10.5" fill="#5f6368">Capacitor</text><title>CMP-750224e41fd5 — unknown: tolerance_pct</title></g>
<g><rect x="982" y="362" width="132" height="60" rx="8" fill="#ffffff" stroke="#c4c7cc" stroke-width="1"/><text x="1048" y="388" text-anchor="middle" font-size="13" font-weight="500" fill="#1b1b1f">controller</text><text x="1048" y="405" text-anchor="middle" font-size="10.5" fill="#5f6368">Controller</text><title>CMP-78f22adc1404</title></g>
<g><rect x="1246" y="494" width="132" height="60" rx="8" fill="#ffffff" stroke="#c4c7cc" stroke-width="1"/><text x="1312" y="520" text-anchor="middle" font-size="13" font-weight="500" fill="#1b1b1f">driver_w</text><text x="1312" y="537" text-anchor="middle" font-size="10.5" fill="#5f6368">GateDriver</text><title>CMP-7a5b1d765e17</title></g>
<g><rect x="1246" y="582" width="132" height="60" rx="8" fill="#ffffff" stroke="#c4c7cc" stroke-width="1"/><text x="1312" y="608" text-anchor="middle" font-size="13" font-weight="500" fill="#1b1b1f">driver_v</text><text x="1312" y="625" text-anchor="middle" font-size="10.5" fill="#5f6368">GateDriver</text><title>CMP-81c2cfeb56e4</title></g>
<g><rect x="982" y="538" width="132" height="60" rx="8" fill="#ffffff" stroke="#c4c7cc" stroke-width="1"/><text x="1048" y="564" text-anchor="middle" font-size="13" font-weight="500" fill="#1b1b1f">bridge_u.low</text><text x="1048" y="581" text-anchor="middle" font-size="10.5" fill="#5f6368">Transistor</text><title>CMP-97e3d14f7c16</title></g>
<g><rect x="980" y="274" width="136" height="60" rx="8" fill="#ffffff" stroke="#c4c7cc" stroke-width="1"/><text x="1048" y="300" text-anchor="middle" font-size="13" font-weight="500" fill="#1b1b1f">bridge_u.high</text><text x="1048" y="317" text-anchor="middle" font-size="10.5" fill="#5f6368">Transistor</text><title>CMP-99cdb224d2ea</title></g>
<g><rect x="982" y="714" width="132" height="60" rx="8" fill="#ffffff" stroke="#c4c7cc" stroke-width="1"/><text x="1048" y="740" text-anchor="middle" font-size="13" font-weight="500" fill="#1b1b1f">bridge_v.low</text><text x="1048" y="757" text-anchor="middle" font-size="10.5" fill="#5f6368">Transistor</text><title>CMP-abe984e5206c</title></g>
<g><rect x="980" y="450" width="136" height="60" rx="8" fill="#ffffff" stroke="#c4c7cc" stroke-width="1"/><text x="1048" y="476" text-anchor="middle" font-size="13" font-weight="500" fill="#1b1b1f">bridge_w.high</text><text x="1048" y="493" text-anchor="middle" font-size="10.5" fill="#5f6368">Transistor</text><title>CMP-cbb1f85a009e</title></g>
<g><rect x="1232" y="758" width="160" height="60" rx="8" fill="#ffffff" stroke="#c4c7cc" stroke-width="1"/><text x="1312" y="784" text-anchor="middle" font-size="13" font-weight="500" fill="#1b1b1f">motor</text><text x="1312" y="801" text-anchor="middle" font-size="10.5" fill="#5f6368">MotorConnector</text><title>CMP-d0e407f039f5</title></g>
<g><rect x="1240" y="670" width="144" height="60" rx="8" fill="#ffffff" stroke="#b3261e" stroke-dasharray="4 3" stroke-width="1"/><text x="1312" y="696" text-anchor="middle" font-size="13" font-weight="500" fill="#1b1b1f">bridge_u.shunt</text><text x="1312" y="713" text-anchor="middle" font-size="10.5" fill="#5f6368">Resistor</text><title>CMP-dadb3dcda0b5 — unknown: tolerance_pct</title></g>
<g><rect x="976" y="802" width="144" height="60" rx="8" fill="#ffffff" stroke="#b3261e" stroke-dasharray="4 3" stroke-width="1"/><text x="1048" y="828" text-anchor="middle" font-size="13" font-weight="500" fill="#1b1b1f">bridge_w.shunt</text><text x="1048" y="845" text-anchor="middle" font-size="10.5" fill="#5f6368">Resistor</text><title>CMP-ed6919d890c0 — unknown: tolerance_pct</title></g>
<g><rect x="520" y="1058" width="136" height="60" rx="8" fill="#fce8e6" stroke="#c4c7cc" stroke-width="1"/><text x="588" y="1084" text-anchor="middle" font-size="13" font-weight="500" fill="#1b1b1f">thermal</text><text x="588" y="1101" text-anchor="middle" font-size="10.5" fill="#5f6368">requirement</text><title>REQ-efd31b2c73a1</title></g>
<line x1="28" y1="1146" x2="48" y2="1146" stroke="#5f6368" stroke-width="1.5" stroke-linecap="round"/>
<text x="54" y="1150" font-size="11" fill="#5f6368">electrical</text>
<line x1="132" y1="1146" x2="152" y2="1146" stroke="#1b1b1f" stroke-width="2" stroke-linecap="round"/>
<text x="158" y="1150" font-size="11" fill="#5f6368">ground</text>
<line x1="212" y1="1146" x2="232" y2="1146" stroke="#b3261e" stroke-width="2" stroke-linecap="round"/>
<text x="238" y="1150" font-size="11" fill="#5f6368">power</text>
<line x1="286" y1="1146" x2="306" y2="1146" stroke="#1a73e8" stroke-width="1.5" stroke-linecap="round"/>
<text x="312" y="1150" font-size="11" fill="#5f6368">signal</text>
<text x="28" y="1174" font-size="11" fill="#b3261e">8 node(s) carry unknown parameters; a dashed border marks them</text>
</svg>
