<svg xmlns="http://www.w3.org/2000/svg" width="704" height="1096" viewBox="0 0 704 1096" font-family="Helvetica, Arial, sans-serif">
<title>power: Where does power come from and where does it go?</title>
<defs><marker id="arrow" viewBox="0 0 8 8" refX="7.5" refY="4" markerWidth="6" markerHeight="6" orient="auto-start-reverse"><path d="M0,0.8 L8,4 L0,7.2 Z" fill="#000000"/></marker></defs>
<g transform="translate(0,0)">
<line x1="28" y1="894" x2="676" y2="894" stroke="#000000" stroke-width="0.6" stroke-dasharray="2 4"/>
<text x="28" y="887" font-size="9" fill="#000000">NOTHING IN THIS VIEW CONNECTS TO THESE</text>
<polyline points="94.0,472.0 94.0,586.0 352.0,586.0 352.0,604.0" fill="none" stroke="#000000" stroke-width="2.2" marker-start="url(#arrow)" marker-end="url(#arrow)"><title>power: NET-dd1fe7b3f522</title></polyline>
<polyline points="208.0,280.0 208.0,394.0 94.0,394.0 94.0,412.0" fill="none" stroke="#000000" stroke-width="2.2" marker-start="url(#arrow)" marker-end="url(#arrow)"><title>power: NET-59321d691cbc</title></polyline>
<polyline points="230.0,280.0 230.0,387.0 244.0,387.0 244.0,412.0" fill="none" stroke="#000000" stroke-width="2.2" marker-start="url(#arrow)" marker-end="url(#arrow)"><title>power: NET-35174e538315</title></polyline>
<polyline points="252.0,280.0 252.0,380.0 288.0,380.0 288.0,412.0" fill="none" stroke="#000000" stroke-width="2.2" marker-start="url(#arrow)" marker-end="url(#arrow)"><title>power: NET-c42280bad0a5</title></polyline>
<polyline points="274.0,280.0 274.0,373.0 416.0,373.0 416.0,412.0" fill="none" stroke="#000000" stroke-width="2.2" marker-start="url(#arrow)" marker-end="url(#arrow)"><title>power: NET-c00204747f6c</title></polyline>
<polyline points="296.0,280.0 296.0,366.0 460.0,366.0 460.0,412.0" fill="none" stroke="#000000" stroke-width="2.2" marker-start="url(#arrow)" marker-end="url(#arrow)"><title>power: NET-ee479f5e7ac3</title></polyline>
<polyline points="266.0,88.0 266.0,202.0 252.0,202.0 252.0,220.0" fill="none" stroke="#000000" stroke-width="2.2" marker-start="url(#arrow)" marker-end="url(#arrow)"><title>power: NET-c0b547af3300</title></polyline>
<polyline points="411.3,280.0 411.3,359.0 588.0,359.0 588.0,412.0" fill="none" stroke="#000000" stroke-width="2.2" marker-start="url(#arrow)" marker-end="url(#arrow)"><title>power: NET-76e0d034f372</title></polyline>
<polyline points="464.7,280.0 464.7,352.0 632.0,352.0 632.0,412.0" fill="none" stroke="#000000" stroke-width="2.2" marker-start="url(#arrow)" marker-end="url(#arrow)"><title>power: NET-c0584ff24c2a</title></polyline>
<polyline points="438.0,88.0 438.0,195.0 438.0,195.0 438.0,220.0" fill="none" stroke="#000000" stroke-width="2.2" marker-start="url(#arrow)" marker-end="url(#arrow)"><title>power: NET-4d1ca10e619c</title></polyline>
<polyline points="326.7,664.0 326.7,778.0 330.0,778.0 330.0,796.0" fill="none" stroke="#000000" stroke-width="2.2" marker-start="url(#arrow)" marker-end="url(#arrow)"><title>power: NET-44849e8e78fa</title></polyline>
<polyline points="377.3,664.0 377.3,771.0 374.0,771.0 374.0,796.0" fill="none" stroke="#000000" stroke-width="2.2" marker-start="url(#arrow)" marker-end="url(#arrow)"><title>power: NET-4519b17f8f99</title></polyline>
<g><rect x="28" y="412" width="132" height="60" fill="none" stroke="#000000" stroke-width="1.2"/><text x="94" y="441.0" text-anchor="middle" font-size="12" font-weight="bold" fill="#000000">RAIL3V3</text><text x="94" y="454.0" text-anchor="middle" font-size="9" fill="#000000">(BLOCK)</text><title>BLK-42978eb8675a</title></g>
<g><rect x="544" y="412" width="132" height="60" fill="none" stroke="#000000" stroke-width="1.2" stroke-dasharray="5 3"/><text x="610" y="441.0" text-anchor="middle" font-size="12" font-weight="bold" fill="#000000">INPUT_BULK</text><text x="610" y="454.0" text-anchor="middle" font-size="9" fill="#000000">(CAPACITOR)</text><title>CMP-11a1f46732b5, unknown: tolerance_pct</title></g>
<g><rect x="200" y="412" width="132" height="60" fill="none" stroke="#000000" stroke-width="1.2" stroke-dasharray="5 3"/><text x="266" y="441.0" text-anchor="middle" font-size="12" font-weight="bold" fill="#000000">FB_TOP</text><text x="266" y="454.0" text-anchor="middle" font-size="9" fill="#000000">(RESISTOR)</text><title>CMP-427611a561a7, unknown: tolerance_pct</title></g>
<g><rect x="186" y="220" width="132" height="60" fill="none" stroke="#000000" stroke-width="1.2"/><text x="252" y="249.0" text-anchor="middle" font-size="12" font-weight="bold" fill="#000000">RAIL_OUT</text><text x="252" y="262.0" text-anchor="middle" font-size="9" fill="#000000">(RAILHEADER)</text><title>CMP-4ad80a6dc0e4</title></g>
<g><rect x="372" y="412" width="132" height="60" fill="none" stroke="#000000" stroke-width="1.2" stroke-dasharray="5 3"/><text x="438" y="441.0" text-anchor="middle" font-size="12" font-weight="bold" fill="#000000">OUTPUT_BULK</text><text x="438" y="454.0" text-anchor="middle" font-size="9" fill="#000000">(CAPACITOR)</text><title>CMP-5e09afeabb1b, unknown: tolerance_pct</title></g>
<g><rect x="200" y="28" width="132" height="60" fill="none" stroke="#000000" stroke-width="1.2"/><text x="266" y="57.0" text-anchor="middle" font-size="12" font-weight="bold" fill="#000000">INDUCTOR</text><text x="266" y="70.0" text-anchor="middle" font-size="9" fill="#000000">(INDUCTOR)</text><title>CMP-64dfc4cd840c</title></g>
<g><rect x="28" y="920" width="132" height="60" fill="none" stroke="#000000" stroke-width="1.2" stroke-dasharray="5 3"/><text x="94" y="949.0" text-anchor="middle" font-size="12" font-weight="bold" fill="#000000">BOOT_CAP</text><text x="94" y="962.0" text-anchor="middle" font-size="9" fill="#000000">(CAPACITOR)</text><title>CMP-6db0a7be2c6a, unknown: tolerance_pct</title></g>
<g><rect x="358" y="220" width="160" height="60" fill="none" stroke="#000000" stroke-width="1.2"/><text x="438" y="249.0" text-anchor="middle" font-size="12" font-weight="bold" fill="#000000">CONTROLLER</text><text x="438" y="262.0" text-anchor="middle" font-size="9" fill="#000000">(BUCKCONTROLLER)</text><title>CMP-78f22adc1404</title></g>
<g><rect x="372" y="28" width="132" height="60" fill="none" stroke="#000000" stroke-width="1.2"/><text x="438" y="57.0" text-anchor="middle" font-size="12" font-weight="bold" fill="#000000">REVERSE</text><text x="438" y="70.0" text-anchor="middle" font-size="9" fill="#000000">(DIODE)</text><title>CMP-9795ae7c35d8</title></g>
<g><rect x="276" y="604" width="152" height="60" fill="none" stroke="#000000" stroke-width="1.2"/><text x="352" y="633.0" text-anchor="middle" font-size="12" font-weight="bold" fill="#000000">DC_IN</text><text x="352" y="646.0" text-anchor="middle" font-size="9" fill="#000000">(INPUTTERMINAL)</text><title>CMP-98de96603cbc</title></g>
<g><rect x="286" y="796" width="132" height="60" fill="none" stroke="#000000" stroke-width="1.2"/><text x="352" y="825.0" text-anchor="middle" font-size="12" font-weight="bold" fill="#000000">PROTECTION</text><text x="352" y="838.0" text-anchor="middle" font-size="9" fill="#000000">(FUSE)</text><title>CMP-a24fc836b7b9</title></g>
<g><rect x="188" y="920" width="132" height="60" fill="none" stroke="#000000" stroke-width="1.2" stroke-dasharray="5 3"/><text x="254" y="949.0" text-anchor="middle" font-size="12" font-weight="bold" fill="#000000">FB_BOTTOM</text><text x="254" y="962.0" text-anchor="middle" font-size="9" fill="#000000">(RESISTOR)</text><title>CMP-fbfdf0649f0c, unknown: tolerance_pct</title></g>
<text x="97.0" y="481.0" text-anchor="start" font-size="8" fill="#000000">SUPPLY / DC</text>
<text x="211.0" y="289.0" text-anchor="start" font-size="8" fill="#000000">DC / RAIL</text>
<text x="233.0" y="289.0" text-anchor="start" font-size="8" fill="#000000">VCC</text>
<text x="255.0" y="289.0" text-anchor="start" font-size="8" fill="#000000">DC</text>
<text x="277.0" y="289.0" text-anchor="start" font-size="8" fill="#000000">VCC</text>
<text x="299.0" y="289.0" text-anchor="start" font-size="8" fill="#000000">DC</text>
<text x="269.0" y="97.0" text-anchor="start" font-size="8" fill="#000000">DC</text>
<text x="414.3" y="289.0" text-anchor="start" font-size="8" fill="#000000">VIN</text>
<text x="467.7" y="289.0" text-anchor="start" font-size="8" fill="#000000">VIN</text>
<text x="441.0" y="97.0" text-anchor="start" font-size="8" fill="#000000">VIN</text>
<text x="329.7" y="673.0" text-anchor="start" font-size="8" fill="#000000">VIN</text>
<text x="380.3" y="673.0" text-anchor="start" font-size="8" fill="#000000">DC</text>
<line x1="28" y1="1008" x2="54" y2="1008" stroke="#000000" stroke-width="2.2"/>
<text x="60" y="1011.5" font-size="9.5" fill="#000000">POWER</text>
<text x="28" y="1038" font-size="9.5" fill="#000000">5 node(s) carry unknown parameters; a dashed border marks them</text>
</g>
<text x="352.0" y="1068" text-anchor="middle" font-size="13" font-weight="bold" letter-spacing="0.08em" fill="#000000">POWER</text>
<text x="352.0" y="1084" text-anchor="middle" font-size="10" font-style="italic" fill="#000000">Where does power come from and where does it go?</text>
</svg>
