<svg xmlns="http://www.w3.org/2000/svg" width="460" height="1172" viewBox="0 0 460 1172" font-family="system-ui, sans-serif">
<title>system: What blocks and parts does this design contain, and how do they nest?</title>
<rect width="460" height="1172" fill="#ffffff"/>
<text x="28" y="26" font-size="15" font-weight="600" fill="#1b1b1f">system</text>
<text x="28" y="43" font-size="11.5" fill="#5f6368">What blocks and parts does this design contain, and how do they nest?</text>
<path d="M174.0,84.0 C412.0,84.0 422.0,876.0 184.0,876.0" fill="none" stroke="#b3261e" stroke-width="2" stroke-linecap="round" opacity="0.85"><title>power: NET-dd1fe7b3f522</title></path>
<path d="M174.0,256.5 C331.0,256.5 345.0,696.5 188.0,696.5" fill="none" stroke="#5f6368" stroke-width="1.5" stroke-linecap="round" opacity="0.85"><title>electrical: NET-7ba8574839c9</title></path>
<path d="M174.0,263.5 C331.0,263.5 345.0,703.5 188.0,703.5" fill="none" stroke="#5f6368" stroke-width="1.5" stroke-linecap="round" opacity="0.85"><title>electrical: NET-ff7cea02f9fb</title></path>
<path d="M174.0,256.5 C419.0,256.5 419.0,1048.5 174.0,1048.5" fill="none" stroke="#5f6368" stroke-width="1.5" stroke-linecap="round" opacity="0.85"><title>electrical: NET-58106926ae95</title></path>
<path d="M174.0,263.5 C419.0,263.5 419.0,1055.5 174.0,1055.5" fill="none" stroke="#5f6368" stroke-width="1.5" stroke-linecap="round" opacity="0.85"><title>electrical: NET-888d56cd279a</title></path>
<path d="M174.0,348.0 C280.0,348.0 280.0,84.0 174.0,84.0" fill="none" stroke="#b3261e" stroke-width="2" stroke-linecap="round" opacity="0.85"><title>power: NET-59321d691cbc</title></path>
<path d="M174.0,344.5 C243.0,344.5 243.0,256.5 174.0,256.5" fill="none" stroke="#b3261e" stroke-width="2" stroke-linecap="round" opacity="0.85"><title>power: NET-35174e538315</title></path>
<path d="M174.0,351.5 C243.0,351.5 243.0,263.5 174.0,263.5" fill="none" stroke="#b3261e" stroke-width="2" stroke-linecap="round" opacity="0.85"><title>power: NET-c42280bad0a5</title></path>
<path d="M174.0,337.5 C257.0,337.5 257.0,425.5 174.0,425.5" fill="none" stroke="#1b1b1f" stroke-width="2" stroke-linecap="round" opacity="0.85"><title>ground: NET-2a8ba4ef04ef</title></path>
<path d="M174.0,344.5 C243.0,344.5 243.0,432.5 174.0,432.5" fill="none" stroke="#b3261e" stroke-width="2" stroke-linecap="round" opacity="0.85"><title>power: NET-c00204747f6c</title></path>
<path d="M174.0,351.5 C243.0,351.5 243.0,439.5 174.0,439.5" fill="none" stroke="#1b1b1f" stroke-width="2" stroke-linecap="round" opacity="0.85"><title>ground: NET-e79b42d5279c</title></path>
<path d="M174.0,358.5 C257.0,358.5 257.0,446.5 174.0,446.5" fill="none" stroke="#b3261e" stroke-width="2" stroke-linecap="round" opacity="0.85"><title>power: NET-ee479f5e7ac3</title></path>
<path d="M174.0,520.5 C265.0,520.5 265.0,344.5 174.0,344.5" fill="none" stroke="#b3261e" stroke-width="2" stroke-linecap="round" opacity="0.85"><title>power: NET-c0b547af3300</title></path>
<path d="M174.0,527.5 C265.0,527.5 265.0,351.5 174.0,351.5" fill="none" stroke="#5f6368" stroke-width="1.5" stroke-linecap="round" opacity="0.85"><title>electrical: NET-f053e5541496</title></path>
<path d="M174.0,601.5 C257.0,601.5 271.0,689.5 188.0,689.5" fill="none" stroke="#5f6368" stroke-width="1.5" stroke-linecap="round" opacity="0.85"><title>electrical: NET-53011e0d8d25</title></path>
<path d="M174.0,608.5 C243.0,608.5 257.0,696.5 188.0,696.5" fill="none" stroke="#5f6368" stroke-width="1.5" stroke-linecap="round" opacity="0.85"><title>electrical: NET-db67c5b75ca7</title></path>
<path d="M188.0,689.5 C381.0,689.5 367.0,161.5 174.0,161.5" fill="none" stroke="#b3261e" stroke-width="2" stroke-linecap="round" opacity="0.85"><title>power: NET-76e0d034f372</title></path>
<path d="M188.0,696.5 C367.0,696.5 353.0,168.5 174.0,168.5" fill="none" stroke="#1b1b1f" stroke-width="2" stroke-linecap="round" opacity="0.85"><title>ground: NET-a04d0107f393</title></path>
<path d="M188.0,703.5 C367.0,703.5 353.0,175.5 174.0,175.5" fill="none" stroke="#1b1b1f" stroke-width="2" stroke-linecap="round" opacity="0.85"><title>ground: NET-a060544611fc</title></path>
<path d="M188.0,710.5 C381.0,710.5 367.0,182.5 174.0,182.5" fill="none" stroke="#b3261e" stroke-width="2" stroke-linecap="round" opacity="0.85"><title>power: NET-c0584ff24c2a</title></path>
<path d="M188.0,696.5 C279.0,696.5 265.0,520.5 174.0,520.5" fill="none" stroke="#5f6368" stroke-width="1.5" stroke-linecap="round" opacity="0.85"><title>electrical: NET-01b7014be933</title></path>
<path d="M188.0,703.5 C279.0,703.5 265.0,527.5 174.0,527.5" fill="none" stroke="#5f6368" stroke-width="1.5" stroke-linecap="round" opacity="0.85"><title>electrical: NET-80ce03b06ade</title></path>
<path d="M188.0,703.5 C257.0,703.5 243.0,615.5 174.0,615.5" fill="none" stroke="#5f6368" stroke-width="1.5" stroke-linecap="round" opacity="0.85"><title>electrical: NET-b2b52c031d2a</title></path>
<path d="M188.0,710.5 C271.0,710.5 257.0,622.5 174.0,622.5" fill="none" stroke="#5f6368" stroke-width="1.5" stroke-linecap="round" opacity="0.85"><title>electrical: NET-b3df9522a1aa</title></path>
<path d="M174.0,784.5 C243.0,784.5 257.0,696.5 188.0,696.5" fill="none" stroke="#b3261e" stroke-width="2" stroke-linecap="round" opacity="0.85"><title>power: NET-4d1ca10e619c</title></path>
<path d="M174.0,791.5 C243.0,791.5 257.0,703.5 188.0,703.5" fill="none" stroke="#5f6368" stroke-width="1.5" stroke-linecap="round" opacity="0.85"><title>electrical: NET-4f78a784eb7e</title></path>
<path d="M184.0,872.5 C275.0,872.5 279.0,696.5 188.0,696.5" fill="none" stroke="#1b1b1f" stroke-width="2" stroke-linecap="round" opacity="0.85"><title>ground: NET-4411ae54eb05</title></path>
<path d="M184.0,879.5 C275.0,879.5 279.0,703.5 188.0,703.5" fill="none" stroke="#1b1b1f" stroke-width="2" stroke-linecap="round" opacity="0.85"><title>ground: NET-d7030896fbaf</title></path>
<path d="M184.0,872.5 C253.0,872.5 243.0,960.5 174.0,960.5" fill="none" stroke="#b3261e" stroke-width="2" stroke-linecap="round" opacity="0.85"><title>power: NET-44849e8e78fa</title></path>
<path d="M184.0,879.5 C253.0,879.5 243.0,967.5 174.0,967.5" fill="none" stroke="#b3261e" stroke-width="2" stroke-linecap="round" opacity="0.85"><title>power: NET-4519b17f8f99</title></path>
<path d="M174.0,960.5 C265.0,960.5 265.0,784.5 174.0,784.5" fill="none" stroke="#5f6368" stroke-width="1.5" stroke-linecap="round" opacity="0.85"><title>electrical: NET-58788eea8844</title></path>
<path d="M174.0,967.5 C265.0,967.5 265.0,791.5 174.0,791.5" fill="none" stroke="#5f6368" stroke-width="1.5" stroke-linecap="round" opacity="0.85"><title>electrical: NET-b6046db85658</title></path>
<path d="M174.0,1048.5 C397.0,1048.5 397.0,344.5 174.0,344.5" fill="none" stroke="#1b1b1f" stroke-width="2" stroke-linecap="round" opacity="0.85"><title>ground: NET-5df90129db60</title></path>
<path d="M174.0,1055.5 C397.0,1055.5 397.0,351.5 174.0,351.5" fill="none" stroke="#5f6368" stroke-width="1.5" stroke-linecap="round" opacity="0.85"><title>electrical: NET-82b4c9d825d9</title></path>
<g><rect x="42" y="54" width="132" height="60" rx="8" fill="#f1f3f4" stroke="#c4c7cc" stroke-width="1"/><text x="108" y="80" text-anchor="middle" font-size="13" font-weight="500" fill="#1b1b1f">Rail3V3</text><text x="108" y="97" text-anchor="middle" font-size="10.5" fill="#5f6368">block</text><title>BLK-42978eb8675a</title></g>
<g><rect x="42" y="142" width="132" height="60" rx="8" fill="#ffffff" stroke="#b3261e" stroke-dasharray="4 3" stroke-width="1"/><text x="108" y="168" text-anchor="middle" font-size="13" font-weight="500" fill="#1b1b1f">input_bulk</text><text x="108" y="185" text-anchor="middle" font-size="10.5" fill="#5f6368">Capacitor</text><title>CMP-11a1f46732b5 — unknown: tolerance_pct</title></g>
<g><rect x="42" y="230" width="132" height="60" rx="8" fill="#ffffff" stroke="#b3261e" stroke-dasharray="4 3" stroke-width="1"/><text x="108" y="256" text-anchor="middle" font-size="13" font-weight="500" fill="#1b1b1f">fb_top</text><text x="108" y="273" text-anchor="middle" font-size="10.5" fill="#5f6368">Resistor</text><title>CMP-427611a561a7 — unknown: tolerance_pct</title></g>
<g><rect x="42" y="318" width="132" height="60" rx="8" fill="#ffffff" stroke="#c4c7cc" stroke-width="1"/><text x="108" y="344" text-anchor="middle" font-size="13" font-weight="500" fill="#1b1b1f">rail_out</text><text x="108" y="361" text-anchor="middle" font-size="10.5" fill="#5f6368">RailHeader</text><title>CMP-4ad80a6dc0e4</title></g>
<g><rect x="42" y="406" width="132" height="60" rx="8" fill="#ffffff" stroke="#b3261e" stroke-dasharray="4 3" stroke-width="1"/><text x="108" y="432" text-anchor="middle" font-size="13" font-weight="500" fill="#1b1b1f">output_bulk</text><text x="108" y="449" text-anchor="middle" font-size="10.5" fill="#5f6368">Capacitor</text><title>CMP-5e09afeabb1b — unknown: tolerance_pct</title></g>
<g><rect x="42" y="494" width="132" height="60" rx="8" fill="#ffffff" stroke="#c4c7cc" stroke-width="1"/><text x="108" y="520" text-anchor="middle" font-size="13" font-weight="500" fill="#1b1b1f">inductor</text><text x="108" y="537" text-anchor="middle" font-size="10.5" fill="#5f6368">Inductor</text><title>CMP-64dfc4cd840c</title></g>
<g><rect x="42" y="582" width="132" height="60" rx="8" fill="#ffffff" stroke="#b3261e" stroke-dasharray="4 3" stroke-width="1"/><text x="108" y="608" text-anchor="middle" font-size="13" font-weight="500" fill="#1b1b1f">boot_cap</text><text x="108" y="625" text-anchor="middle" font-size="10.5" fill="#5f6368">Capacitor</text><title>CMP-6db0a7be2c6a — unknown: tolerance_pct</title></g>
<g><rect x="28" y="670" width="160" height="60" rx="8" fill="#ffffff" stroke="#c4c7cc" stroke-width="1"/><text x="108" y="696" text-anchor="middle" font-size="13" font-weight="500" fill="#1b1b1f">controller</text><text x="108" y="713" text-anchor="middle" font-size="10.5" fill="#5f6368">BuckController</text><title>CMP-78f22adc1404</title></g>
<g><rect x="42" y="758" width="132" height="60" rx="8" fill="#ffffff" stroke="#c4c7cc" stroke-width="1"/><text x="108" y="784" text-anchor="middle" font-size="13" font-weight="500" fill="#1b1b1f">reverse</text><text x="108" y="801" text-anchor="middle" font-size="10.5" fill="#5f6368">Diode</text><title>CMP-9795ae7c35d8</title></g>
<g><rect x="32" y="846" width="152" height="60" rx="8" fill="#ffffff" stroke="#c4c7cc" stroke-width="1"/><text x="108" y="872" text-anchor="middle" font-size="13" font-weight="500" fill="#1b1b1f">dc_in</text><text x="108" y="889" text-anchor="middle" font-size="10.5" fill="#5f6368">InputTerminal</text><title>CMP-98de96603cbc</title></g>
<g><rect x="42" y="934" width="132" height="60" rx="8" fill="#ffffff" stroke="#c4c7cc" stroke-width="1"/><text x="108" y="960" text-anchor="middle" font-size="13" font-weight="500" fill="#1b1b1f">protection</text><text x="108" y="977" text-anchor="middle" font-size="10.5" fill="#5f6368">Fuse</text><title>CMP-a24fc836b7b9</title></g>
<g><rect x="42" y="1022" width="132" height="60" rx="8" fill="#ffffff" stroke="#b3261e" stroke-dasharray="4 3" stroke-width="1"/><text x="108" y="1048" text-anchor="middle" font-size="13" font-weight="500" fill="#1b1b1f">fb_bottom</text><text x="108" y="1065" text-anchor="middle" font-size="10.5" fill="#5f6368">Resistor</text><title>CMP-fbfdf0649f0c — unknown: tolerance_pct</title></g>
<line x1="28" y1="1110" x2="48" y2="1110" stroke="#5f6368" stroke-width="1.5" stroke-linecap="round"/>
<text x="54" y="1114" font-size="11" fill="#5f6368">electrical</text>
<line x1="132" y1="1110" x2="152" y2="1110" stroke="#1b1b1f" stroke-width="2" stroke-linecap="round"/>
<text x="158" y="1114" font-size="11" fill="#5f6368">ground</text>
<line x1="212" y1="1110" x2="232" y2="1110" stroke="#b3261e" stroke-width="2" stroke-linecap="round"/>
<text x="238" y="1114" font-size="11" fill="#5f6368">power</text>
<text x="28" y="1138" font-size="11" fill="#b3261e">5 node(s) carry unknown parameters; a dashed border marks them</text>
</svg>
