<svg xmlns="http://www.w3.org/2000/svg" width="720" height="1548" viewBox="0 0 720 1548" font-family="Helvetica, Arial, sans-serif">
<title>interconnect: What is connected to what?</title>
<defs><marker id="arrow" viewBox="0 0 8 8" refX="7.5" refY="4" markerWidth="6" markerHeight="6" orient="auto-start-reverse"><path d="M0,0.8 L8,4 L0,7.2 Z" fill="#000000"/></marker></defs>
<g transform="translate(2,0)">
<polyline points="76.0,856.0 76.0,874.0 428.0,874.0 428.0,856.0" fill="none" stroke="#000000" stroke-width="1" marker-start="url(#arrow)" marker-end="url(#arrow)"><title>electrical: NET-5df90129db60</title></polyline>
<polyline points="124.0,856.0 124.0,881.0 600.0,881.0 600.0,856.0" fill="none" stroke="#000000" stroke-width="1" marker-start="url(#arrow)" marker-end="url(#arrow)"><title>electrical: NET-2a8ba4ef04ef</title></polyline>
<polyline points="358.0,88.0 358.0,202.0 358.0,202.0 358.0,220.0" fill="none" stroke="#000000" stroke-width="1" marker-start="url(#arrow)" marker-end="url(#arrow)"><title>electrical: NET-59321d691cbc</title></polyline>
<polyline points="358.0,1372.0 358.0,1354.0 380.0,1354.0 380.0,1240.0" fill="none" stroke="#000000" stroke-width="1" marker-start="url(#arrow)" marker-end="url(#arrow)"><title>electrical: NET-e440d18464c1</title></polyline>
<polyline points="336.0,1240.0 336.0,1347.0 325.0,1347.0 325.0,1372.0" fill="none" stroke="#000000" stroke-width="1" marker-start="url(#arrow)" marker-end="url(#arrow)"><title>electrical: NET-e2c446fe38c6</title></polyline>
<polyline points="98.0,472.0 98.0,586.0 358.0,586.0 358.0,604.0" fill="none" stroke="#000000" stroke-width="1" marker-start="url(#arrow)" marker-end="url(#arrow)"><title>electrical: NET-01b7014be933</title></polyline>
<polyline points="278.0,856.0 278.0,970.0 272.0,970.0 272.0,988.0" fill="none" stroke="#000000" stroke-width="1" marker-start="url(#arrow)" marker-end="url(#arrow)"><title>electrical: NET-53011e0d8d25</title></polyline>
<polyline points="335.3,664.0 335.3,778.0 76.0,778.0 76.0,796.0" fill="none" stroke="#000000" stroke-width="1" marker-start="url(#arrow)" marker-end="url(#arrow)"><title>electrical: NET-58106926ae95</title></polyline>
<polyline points="380.7,664.0 380.7,771.0 278.0,771.0 278.0,796.0" fill="none" stroke="#000000" stroke-width="1" marker-start="url(#arrow)" marker-end="url(#arrow)"><title>electrical: NET-b3df9522a1aa</title></polyline>
<polyline points="318.4,280.0 318.4,394.0 98.0,394.0 98.0,412.0" fill="none" stroke="#000000" stroke-width="1" marker-start="url(#arrow)" marker-end="url(#arrow)"><title>electrical: NET-76e0d034f372</title></polyline>
<polyline points="344.8,280.0 344.8,387.0 272.0,387.0 272.0,412.0" fill="none" stroke="#000000" stroke-width="1" marker-start="url(#arrow)" marker-end="url(#arrow)"><title>electrical: NET-4d1ca10e619c</title></polyline>
<polyline points="371.2,280.0 371.2,380.0 444.0,380.0 444.0,412.0" fill="none" stroke="#000000" stroke-width="1" marker-start="url(#arrow)" marker-end="url(#arrow)"><title>electrical: NET-4519b17f8f99</title></polyline>
<polyline points="397.6,280.0 397.6,373.0 618.0,373.0 618.0,412.0" fill="none" stroke="#000000" stroke-width="1" marker-start="url(#arrow)" marker-end="url(#arrow)"><title>electrical: NET-a060544611fc</title></polyline>
<polyline points="618.0,472.0 618.0,764.0 124.0,764.0 124.0,796.0" fill="none" stroke="#000000" stroke-width="1" marker-start="url(#arrow)" marker-end="url(#arrow)"><title>electrical: NET-ee479f5e7ac3</title></polyline>
<polyline points="472.0,856.0 472.0,888.0 524.0,888.0 524.0,1340.0 391.0,1340.0 391.0,1372.0" fill="none" stroke="#000000" stroke-width="1" marker-start="url(#arrow)" marker-end="url(#arrow)"><title>electrical: NET-6ccf32b9fe2e</title></polyline>
<polyline points="644.0,856.0 644.0,963.0 444.0,963.0 444.0,988.0" fill="none" stroke="#000000" stroke-width="1" marker-start="url(#arrow)" marker-end="url(#arrow)"><title>electrical: NET-c42280bad0a5</title></polyline>
<g><rect x="28" y="796" width="144" height="60" fill="none" stroke="#000000" stroke-width="1.2" stroke-dasharray="5 3"/><text x="100" y="825.0" text-anchor="middle" font-size="12" font-weight="bold" fill="#000000">D_BOTTOM_RIGHT</text><text x="100" y="838.0" text-anchor="middle" font-size="9" fill="#000000">(SIGNALDIODE)</text><title>CMP-0ef6b90c7682, unknown: forward_current, forward_voltage, reverse_voltage</title></g>
<g><rect x="292" y="28" width="132" height="60" fill="none" stroke="#000000" stroke-width="1.2" stroke-dasharray="5 3"/><text x="358" y="57.0" text-anchor="middle" font-size="12" font-weight="bold" fill="#000000">R_1</text><text x="358" y="70.0" text-anchor="middle" font-size="9" fill="#000000">(RESISTOR)</text><title>CMP-1116cb228fe1, unknown: power_rating, tolerance_pct</title></g>
<g><rect x="206" y="988" width="132" height="60" fill="none" stroke="#000000" stroke-width="1.2"/><text x="272" y="1017.0" text-anchor="middle" font-size="12" font-weight="bold" fill="#000000">SUPPLY_POS</text><text x="272" y="1030.0" text-anchor="middle" font-size="9" fill="#000000">(CELL)</text><title>CMP-1cdeb813e200</title></g>
<g><rect x="292" y="1372" width="132" height="60" fill="none" stroke="#000000" stroke-width="1.2"/><text x="358" y="1401.0" text-anchor="middle" font-size="12" font-weight="bold" fill="#000000">AMP_2</text><text x="358" y="1414.0" text-anchor="middle" font-size="9" fill="#000000">(OPAMP)</text><title>CMP-20ea00ca82b2</title></g>
<g><rect x="292" y="1180" width="132" height="60" fill="none" stroke="#000000" stroke-width="1.2" stroke-dasharray="5 3"/><text x="358" y="1209.0" text-anchor="middle" font-size="12" font-weight="bold" fill="#000000">C_0</text><text x="358" y="1222.0" text-anchor="middle" font-size="9" fill="#000000">(CAPACITOR)</text><title>CMP-21f147af860d, unknown: tolerance_pct, voltage_rating</title></g>
<g><rect x="30" y="412" width="136" height="60" fill="none" stroke="#000000" stroke-width="1.2" stroke-dasharray="5 3"/><text x="98" y="441.0" text-anchor="middle" font-size="12" font-weight="bold" fill="#000000">D_TOP_LEFT</text><text x="98" y="454.0" text-anchor="middle" font-size="9" fill="#000000">(SIGNALDIODE)</text><title>CMP-2278ac01105b, unknown: forward_current, forward_voltage, reverse_voltage</title></g>
<g><rect x="206" y="412" width="132" height="60" fill="none" stroke="#000000" stroke-width="1.2" stroke-dasharray="5 3"/><text x="272" y="441.0" text-anchor="middle" font-size="12" font-weight="bold" fill="#000000">R_2</text><text x="272" y="454.0" text-anchor="middle" font-size="9" fill="#000000">(RESISTOR)</text><title>CMP-37372974c055, unknown: power_rating, tolerance_pct</title></g>
<g><rect x="212" y="796" width="132" height="60" fill="none" stroke="#000000" stroke-width="1.2" stroke-dasharray="5 3"/><text x="278" y="825.0" text-anchor="middle" font-size="12" font-weight="bold" fill="#000000">R_3</text><text x="278" y="838.0" text-anchor="middle" font-size="9" fill="#000000">(RESISTOR)</text><title>CMP-4cd5e4d4b60d, unknown: power_rating, tolerance_pct</title></g>
<g><rect x="290" y="604" width="136" height="60" fill="none" stroke="#000000" stroke-width="1.2" stroke-dasharray="5 3"/><text x="358" y="633.0" text-anchor="middle" font-size="12" font-weight="bold" fill="#000000">D_TOP_RIGHT</text><text x="358" y="646.0" text-anchor="middle" font-size="9" fill="#000000">(SIGNALDIODE)</text><title>CMP-7960cbb5bf5e, unknown: forward_current, forward_voltage, reverse_voltage</title></g>
<g><rect x="378" y="412" width="132" height="60" fill="none" stroke="#000000" stroke-width="1.2" stroke-dasharray="5 3"/><text x="444" y="441.0" text-anchor="middle" font-size="12" font-weight="bold" fill="#000000">R_0</text><text x="444" y="454.0" text-anchor="middle" font-size="9" fill="#000000">(RESISTOR)</text><title>CMP-9f649540f4bc, unknown: power_rating, tolerance_pct</title></g>
<g><rect x="292" y="220" width="132" height="60" fill="none" stroke="#000000" stroke-width="1.2"/><text x="358" y="249.0" text-anchor="middle" font-size="12" font-weight="bold" fill="#000000">AMP_1</text><text x="358" y="262.0" text-anchor="middle" font-size="9" fill="#000000">(OPAMP)</text><title>CMP-ae72c09f6b61</title></g>
<g><rect x="378" y="988" width="132" height="60" fill="none" stroke="#000000" stroke-width="1.2"/><text x="444" y="1017.0" text-anchor="middle" font-size="12" font-weight="bold" fill="#000000">SUPPLY_NEG</text><text x="444" y="1030.0" text-anchor="middle" font-size="9" fill="#000000">(CELL)</text><title>CMP-af4bd4236044</title></g>
<g><rect x="550" y="412" width="136" height="60" fill="none" stroke="#000000" stroke-width="1.2" stroke-dasharray="5 3"/><text x="618" y="441.0" text-anchor="middle" font-size="12" font-weight="bold" fill="#000000">D_BOTTOM_LEFT</text><text x="618" y="454.0" text-anchor="middle" font-size="9" fill="#000000">(SIGNALDIODE)</text><title>CMP-ce9c749e17c4, unknown: forward_current, forward_voltage, reverse_voltage</title></g>
<g><rect x="384" y="796" width="132" height="60" fill="none" stroke="#000000" stroke-width="1.2" stroke-dasharray="5 3"/><text x="450" y="825.0" text-anchor="middle" font-size="12" font-weight="bold" fill="#000000">R_5</text><text x="450" y="838.0" text-anchor="middle" font-size="9" fill="#000000">(RESISTOR)</text><title>CMP-dcb643d14409, unknown: power_rating, tolerance_pct</title></g>
<g><rect x="556" y="796" width="132" height="60" fill="none" stroke="#000000" stroke-width="1.2" stroke-dasharray="5 3"/><text x="622" y="825.0" text-anchor="middle" font-size="12" font-weight="bold" fill="#000000">R_4</text><text x="622" y="838.0" text-anchor="middle" font-size="9" fill="#000000">(RESISTOR)</text><title>CMP-e5d84f6363ba, unknown: power_rating, tolerance_pct</title></g>
<text x="361.0" y="97.0" text-anchor="start" font-size="8" fill="#000000">NON_INVERTING</text>
<text x="361.0" y="1368.0" text-anchor="start" font-size="8" fill="#000000">INVERTING</text>
<text x="339.0" y="1249.0" text-anchor="start" font-size="8" fill="#000000">OUTPUT</text>
<text x="321.4" y="289.0" text-anchor="start" font-size="8" fill="#000000">OUTPUT</text>
<text x="347.8" y="289.0" text-anchor="start" font-size="8" fill="#000000">INVERTING</text>
<text x="374.2" y="289.0" text-anchor="start" font-size="8" fill="#000000">NON_INVERTING</text>
<text x="400.6" y="289.0" text-anchor="start" font-size="8" fill="#000000">OUTPUT</text>
<text x="475.0" y="865.0" text-anchor="start" font-size="8" fill="#000000">INVERTING</text>
<line x1="28" y1="1460" x2="54" y2="1460" stroke="#000000" stroke-width="1"/>
<text x="60" y="1463.5" font-size="9.5" fill="#000000">ELECTRICAL</text>
<text x="28" y="1490" font-size="9.5" fill="#000000">11 node(s) carry unknown parameters; a dashed border marks them</text>
</g>
<text x="360.0" y="1520" text-anchor="middle" font-size="13" font-weight="bold" letter-spacing="0.08em" fill="#000000">INTERCONNECT</text>
<text x="360.0" y="1536" text-anchor="middle" font-size="10" font-style="italic" fill="#000000">What is connected to what?</text>
</svg>
